<?xml version="1.0" encoding="iso-8859-1"?>
<!-- Generator: Adobe Illustrator 19.0.0, SVG Export Plug-In . SVG Version: 6.00 Build 0)  -->
<svg version="1.1" id="Layer_1" xmlns="http://www.w3.org/2000/svg" xmlns:xlink="http://www.w3.org/1999/xlink" x="0px" y="0px"
	 viewBox="0 0 511.997 511.997" style="enable-background:new 0 0 511.997 511.997;" xml:space="preserve">
<path style="fill:#507C5C;" d="M167.961,405.541h-46.683c-19.536,0-35.431-15.894-35.431-35.431V231.897
	c0-8.424,6.829-15.253,15.253-15.253s15.253,6.829,15.253,15.253V370.11c0,2.715,2.209,4.925,4.925,4.925h46.683
	c8.424,0,15.253,6.829,15.253,15.253C183.214,398.712,176.385,405.541,167.961,405.541z"/>
<path style="fill:#CFF09E;" d="M158.4,102.558l-59.72,61.375H32.559c-8.035,0-12.074-9.701-6.415-15.404L158.4,15.253
	l132.257,133.276c5.66,5.703,1.62,15.404-6.415,15.404h-66.123L158.4,102.558z"/>
<g>
	<path style="fill:#507C5C;" d="M301.485,137.784L169.227,4.509C166.364,1.623,162.467,0,158.4,0c-4.066,0-7.964,1.623-10.827,4.509
		L15.317,137.786c-6.931,6.984-8.964,17.365-5.181,26.449c3.783,9.083,12.584,14.951,22.423,14.951h66.123
		c4.118,0,8.061-1.664,10.932-4.616L158.4,124.43l42.046,43.212v109.62c0,8.424,6.829,15.253,15.253,15.253
		c8.424,0,15.253-6.829,15.253-15.253v-98.075h53.289c9.84,0,18.641-5.869,22.423-14.951
		C310.449,155.151,308.416,144.77,301.485,137.784z M224.561,148.68l-55.228-56.758c-2.872-2.951-6.813-4.616-10.932-4.616
		c-4.118,0-8.061,1.664-10.932,4.616L92.241,148.68H47.482L158.4,36.908L269.318,148.68H224.561z"/>
	<path style="fill:#507C5C;" d="M410.896,295.355c-8.424,0-15.253-6.829-15.253-15.253V141.889c0-2.715-2.209-4.925-4.925-4.925
		h-46.683c-8.424,0-15.253-6.829-15.253-15.253s6.829-15.253,15.253-15.253h46.683c19.536,0,35.431,15.894,35.431,35.431v138.213
		C426.149,288.526,419.32,295.355,410.896,295.355z"/>
</g>
<path style="fill:#CFF09E;" d="M353.597,409.442l59.72-61.375h66.123c8.035,0,12.074,9.701,6.415,15.404L353.598,496.747
	L221.342,363.471c-5.66-5.703-1.62-15.404,6.415-15.404h66.123L353.597,409.442z"/>
<path style="fill:#507C5C;" d="M501.861,347.765c-3.783-9.083-12.584-14.951-22.423-14.951h-66.123
	c-4.118,0-8.061,1.664-10.932,4.616l-48.787,50.139l-42.046-43.212v-109.62c0-8.424-6.829-15.253-15.253-15.253
	s-15.253,6.829-15.253,15.253v98.075h-53.289c-9.84,0-18.641,5.869-22.423,14.951c-3.783,9.083-1.75,19.464,5.181,26.449
	L342.77,507.488c2.863,2.886,6.762,4.509,10.827,4.509c4.065,0,7.964-1.623,10.827-4.509L496.68,374.211
	C503.611,367.23,505.644,356.849,501.861,347.765z M353.597,475.092L242.679,363.32h44.758l55.228,56.758
	c2.872,2.951,6.813,4.616,10.932,4.616s8.061-1.664,10.932-4.616l55.228-56.758h44.758L353.597,475.092z"/>
<g>
</g>
<g>
</g>
<g>
</g>
<g>
</g>
<g>
</g>
<g>
</g>
<g>
</g>
<g>
</g>
<g>
</g>
<g>
</g>
<g>
</g>
<g>
</g>
<g>
</g>
<g>
</g>
<g>
</g>
</svg>
