<svg xmlns="http://www.w3.org/2000/svg" xmlns:xlink="http://www.w3.org/1999/xlink" width="1200" height="480">\n<path  d="M 0 0
L 1200 0
L 1200 480
L 0 480
L 0 0" style="stroke-width:0;stroke:rgba(255,255,255,1.0);fill:rgba(255,255,255,1.0)"/><path  d="M 12 11
L 1123 11
L 1123 431
L 12 431
L 12 11" style="stroke-width:0;stroke:rgba(255,255,255,1.0);fill:rgba(255,255,255,1.0)"/><path  d="M 12 431
L 1123 431" style="stroke-width:1;stroke:rgba(85,85,85,0.7);fill:none"/><path  d="M 12 431
L 12 436" style="stroke-width:1;stroke:rgba(85,85,85,0.7);fill:none"/><text x="5" y="453" style="stroke-width:0;stroke:none;fill:rgba(51,51,51,1.0);font-size:12.8px;font-family:'Roboto Medium',sans-serif">0s</text><path  d="M 50 431
L 50 436" style="stroke-width:1;stroke:rgba(85,85,85,0.7);fill:none"/><text x="43" y="453" style="stroke-width:0;stroke:none;fill:rgba(51,51,51,1.0);font-size:12.8px;font-family:'Roboto Medium',sans-serif">3s</text><path  d="M 87 431
L 87 436" style="stroke-width:1;stroke:rgba(85,85,85,0.7);fill:none"/><text x="80" y="453" style="stroke-width:0;stroke:none;fill:rgba(51,51,51,1.0);font-size:12.8px;font-family:'Roboto Medium',sans-serif">6s</text><path  d="M 124 431
L 124 436" style="stroke-width:1;stroke:rgba(85,85,85,0.7);fill:none"/><text x="117" y="453" style="stroke-width:0;stroke:none;fill:rgba(51,51,51,1.0);font-size:12.8px;font-family:'Roboto Medium',sans-serif">9s</text><path  d="M 161 431
L 161 436" style="stroke-width:1;stroke:rgba(85,85,85,0.7);fill:none"/><text x="150" y="453" style="stroke-width:0;stroke:none;fill:rgba(51,51,51,1.0);font-size:12.8px;font-family:'Roboto Medium',sans-serif">12s</text><path  d="M 198 431
L 198 436" style="stroke-width:1;stroke:rgba(85,85,85,0.7);fill:none"/><text x="187" y="453" style="stroke-width:0;stroke:none;fill:rgba(51,51,51,1.0);font-size:12.8px;font-family:'Roboto Medium',sans-serif">15s</text><path  d="M 235 431
L 235 436" style="stroke-width:1;stroke:rgba(85,85,85,0.7);fill:none"/><text x="224" y="453" style="stroke-width:0;stroke:none;fill:rgba(51,51,51,1.0);font-size:12.8px;font-family:'Roboto Medium',sans-serif">18s</text><path  d="M 273 431
L 273 436" style="stroke-width:1;stroke:rgba(85,85,85,0.7);fill:none"/><text x="262" y="453" style="stroke-width:0;stroke:none;fill:rgba(51,51,51,1.0);font-size:12.8px;font-family:'Roboto Medium',sans-serif">21s</text><path  d="M 309 431
L 309 436" style="stroke-width:1;stroke:rgba(85,85,85,0.7);fill:none"/><text x="298" y="453" style="stroke-width:0;stroke:none;fill:rgba(51,51,51,1.0);font-size:12.8px;font-family:'Roboto Medium',sans-serif">24s</text><path  d="M 346 431
L 346 436" style="stroke-width:1;stroke:rgba(85,85,85,0.7);fill:none"/><text x="335" y="453" style="stroke-width:0;stroke:none;fill:rgba(51,51,51,1.0);font-size:12.8px;font-family:'Roboto Medium',sans-serif">27s</text><path  d="M 384 431
L 384 436" style="stroke-width:1;stroke:rgba(85,85,85,0.7);fill:none"/><text x="373" y="453" style="stroke-width:0;stroke:none;fill:rgba(51,51,51,1.0);font-size:12.8px;font-family:'Roboto Medium',sans-serif">30s</text><path  d="M 420 431
L 420 436" style="stroke-width:1;stroke:rgba(85,85,85,0.7);fill:none"/><text x="409" y="453" style="stroke-width:0;stroke:none;fill:rgba(51,51,51,1.0);font-size:12.8px;font-family:'Roboto Medium',sans-serif">33s</text><path  d="M 457 431
L 457 436" style="stroke-width:1;stroke:rgba(85,85,85,0.7);fill:none"/><text x="446" y="453" style="stroke-width:0;stroke:none;fill:rgba(51,51,51,1.0);font-size:12.8px;font-family:'Roboto Medium',sans-serif">36s</text><path  d="M 495 431
L 495 436" style="stroke-width:1;stroke:rgba(85,85,85,0.7);fill:none"/><text x="484" y="453" style="stroke-width:0;stroke:none;fill:rgba(51,51,51,1.0);font-size:12.8px;font-family:'Roboto Medium',sans-serif">39s</text><path  d="M 531 431
L 531 436" style="stroke-width:1;stroke:rgba(85,85,85,0.7);fill:none"/><text x="520" y="453" style="stroke-width:0;stroke:none;fill:rgba(51,51,51,1.0);font-size:12.8px;font-family:'Roboto Medium',sans-serif">42s</text><path  d="M 568 431
L 568 436" style="stroke-width:1;stroke:rgba(85,85,85,0.7);fill:none"/><text x="557" y="453" style="stroke-width:0;stroke:none;fill:rgba(51,51,51,1.0);font-size:12.8px;font-family:'Roboto Medium',sans-serif">45s</text><path  d="M 606 431
L 606 436" style="stroke-width:1;stroke:rgba(85,85,85,0.7);fill:none"/><text x="595" y="453" style="stroke-width:0;stroke:none;fill:rgba(51,51,51,1.0);font-size:12.8px;font-family:'Roboto Medium',sans-serif">49s</text><path  d="M 643 431
L 643 436" style="stroke-width:1;stroke:rgba(85,85,85,0.7);fill:none"/><text x="632" y="453" style="stroke-width:0;stroke:none;fill:rgba(51,51,51,1.0);font-size:12.8px;font-family:'Roboto Medium',sans-serif">52s</text><path  d="M 679 431
L 679 436" style="stroke-width:1;stroke:rgba(85,85,85,0.7);fill:none"/><text x="668" y="453" style="stroke-width:0;stroke:none;fill:rgba(51,51,51,1.0);font-size:12.8px;font-family:'Roboto Medium',sans-serif">55s</text><path  d="M 717 431
L 717 436" style="stroke-width:1;stroke:rgba(85,85,85,0.7);fill:none"/><text x="706" y="453" style="stroke-width:0;stroke:none;fill:rgba(51,51,51,1.0);font-size:12.8px;font-family:'Roboto Medium',sans-serif">58s</text><path  d="M 754 431
L 754 436" style="stroke-width:1;stroke:rgba(85,85,85,0.7);fill:none"/><text x="738" y="453" style="stroke-width:0;stroke:none;fill:rgba(51,51,51,1.0);font-size:12.8px;font-family:'Roboto Medium',sans-serif">1m1s</text><path  d="M 790 431
L 790 436" style="stroke-width:1;stroke:rgba(85,85,85,0.7);fill:none"/><text x="774" y="453" style="stroke-width:0;stroke:none;fill:rgba(51,51,51,1.0);font-size:12.8px;font-family:'Roboto Medium',sans-serif">1m4s</text><path  d="M 828 431
L 828 436" style="stroke-width:1;stroke:rgba(85,85,85,0.7);fill:none"/><text x="812" y="453" style="stroke-width:0;stroke:none;fill:rgba(51,51,51,1.0);font-size:12.8px;font-family:'Roboto Medium',sans-serif">1m7s</text><path  d="M 865 431
L 865 436" style="stroke-width:1;stroke:rgba(85,85,85,0.7);fill:none"/><text x="845" y="453" style="stroke-width:0;stroke:none;fill:rgba(51,51,51,1.0);font-size:12.8px;font-family:'Roboto Medium',sans-serif">1m10s</text><path  d="M 902 431
L 902 436" style="stroke-width:1;stroke:rgba(85,85,85,0.7);fill:none"/><text x="882" y="453" style="stroke-width:0;stroke:none;fill:rgba(51,51,51,1.0);font-size:12.8px;font-family:'Roboto Medium',sans-serif">1m13s</text><path  d="M 939 431
L 939 436" style="stroke-width:1;stroke:rgba(85,85,85,0.7);fill:none"/><text x="919" y="453" style="stroke-width:0;stroke:none;fill:rgba(51,51,51,1.0);font-size:12.8px;font-family:'Roboto Medium',sans-serif">1m16s</text><path  d="M 976 431
L 976 436" style="stroke-width:1;stroke:rgba(85,85,85,0.7);fill:none"/><text x="956" y="453" style="stroke-width:0;stroke:none;fill:rgba(51,51,51,1.0);font-size:12.8px;font-family:'Roboto Medium',sans-serif">1m19s</text><path  d="M 1013 431
L 1013 436" style="stroke-width:1;stroke:rgba(85,85,85,0.7);fill:none"/><text x="993" y="453" style="stroke-width:0;stroke:none;fill:rgba(51,51,51,1.0);font-size:12.8px;font-family:'Roboto Medium',sans-serif">1m22s</text><path  d="M 1050 431
L 1050 436" style="stroke-width:1;stroke:rgba(85,85,85,0.7);fill:none"/><text x="1030" y="453" style="stroke-width:0;stroke:none;fill:rgba(51,51,51,1.0);font-size:12.8px;font-family:'Roboto Medium',sans-serif">1m25s</text><path  d="M 1087 431
L 1087 436" style="stroke-width:1;stroke:rgba(85,85,85,0.7);fill:none"/><text x="1067" y="453" style="stroke-width:0;stroke:none;fill:rgba(51,51,51,1.0);font-size:12.8px;font-family:'Roboto Medium',sans-serif">1m28s</text><path  d="M 1123 431
L 1123 436" style="stroke-width:1;stroke:rgba(85,85,85,0.7);fill:none"/><text x="1103" y="453" style="stroke-width:0;stroke:none;fill:rgba(51,51,51,1.0);font-size:12.8px;font-family:'Roboto Medium',sans-serif">1m31s</text><text x="553" y="475" style="stroke-width:0;stroke:none;fill:rgba(51,51,51,1.0);font-size:12.8px;font-family:'Roboto Medium',sans-serif">Time</text><path  d="M 50 431
L 50 11" style="stroke-width:1;stroke:rgba(0,0,0,0.1);fill:none"/><path  d="M 87 431
L 87 11" style="stroke-width:1;stroke:rgba(0,0,0,0.1);fill:none"/><path  d="M 124 431
L 124 11" style="stroke-width:1;stroke:rgba(0,0,0,0.1);fill:none"/><path  d="M 161 431
L 161 11" style="stroke-width:1;stroke:rgba(0,0,0,0.1);fill:none"/><path  d="M 198 431
L 198 11" style="stroke-width:1;stroke:rgba(0,0,0,0.1);fill:none"/><path  d="M 235 431
L 235 11" style="stroke-width:1;stroke:rgba(0,0,0,0.1);fill:none"/><path  d="M 273 431
L 273 11" style="stroke-width:1;stroke:rgba(0,0,0,0.1);fill:none"/><path  d="M 309 431
L 309 11" style="stroke-width:1;stroke:rgba(0,0,0,0.1);fill:none"/><path  d="M 346 431
L 346 11" style="stroke-width:1;stroke:rgba(0,0,0,0.1);fill:none"/><path  d="M 384 431
L 384 11" style="stroke-width:1;stroke:rgba(0,0,0,0.1);fill:none"/><path  d="M 420 431
L 420 11" style="stroke-width:1;stroke:rgba(0,0,0,0.1);fill:none"/><path  d="M 457 431
L 457 11" style="stroke-width:1;stroke:rgba(0,0,0,0.1);fill:none"/><path  d="M 495 431
L 495 11" style="stroke-width:1;stroke:rgba(0,0,0,0.1);fill:none"/><path  d="M 531 431
L 531 11" style="stroke-width:1;stroke:rgba(0,0,0,0.1);fill:none"/><path  d="M 568 431
L 568 11" style="stroke-width:1;stroke:rgba(0,0,0,0.1);fill:none"/><path  d="M 606 431
L 606 11" style="stroke-width:1;stroke:rgba(0,0,0,0.1);fill:none"/><path  d="M 643 431
L 643 11" style="stroke-width:1;stroke:rgba(0,0,0,0.1);fill:none"/><path  d="M 679 431
L 679 11" style="stroke-width:1;stroke:rgba(0,0,0,0.1);fill:none"/><path  d="M 717 431
L 717 11" style="stroke-width:1;stroke:rgba(0,0,0,0.1);fill:none"/><path  d="M 754 431
L 754 11" style="stroke-width:1;stroke:rgba(0,0,0,0.1);fill:none"/><path  d="M 790 431
L 790 11" style="stroke-width:1;stroke:rgba(0,0,0,0.1);fill:none"/><path  d="M 828 431
L 828 11" style="stroke-width:1;stroke:rgba(0,0,0,0.1);fill:none"/><path  d="M 865 431
L 865 11" style="stroke-width:1;stroke:rgba(0,0,0,0.1);fill:none"/><path  d="M 902 431
L 902 11" style="stroke-width:1;stroke:rgba(0,0,0,0.1);fill:none"/><path  d="M 939 431
L 939 11" style="stroke-width:1;stroke:rgba(0,0,0,0.1);fill:none"/><path  d="M 976 431
L 976 11" style="stroke-width:1;stroke:rgba(0,0,0,0.1);fill:none"/><path  d="M 1013 431
L 1013 11" style="stroke-width:1;stroke:rgba(0,0,0,0.1);fill:none"/><path  d="M 1050 431
L 1050 11" style="stroke-width:1;stroke:rgba(0,0,0,0.1);fill:none"/><path  d="M 1087 431
L 1087 11" style="stroke-width:1;stroke:rgba(0,0,0,0.1);fill:none"/><path  d="M 1124 431
L 1124 11" style="stroke-width:1;stroke:rgba(85,85,85,0.7);fill:none"/><path  d="M 1124 431
L 1129 431" style="stroke-width:1;stroke:rgba(85,85,85,0.7);fill:none"/><text x="1134" y="437" style="stroke-width:0;stroke:none;fill:rgba(51,51,51,1.0);font-size:12.8px;font-family:'Roboto Medium',sans-serif">0.00</text><path  d="M 1124 391
L 1129 391" style="stroke-width:1;stroke:rgba(85,85,85,0.7);fill:none"/><text x="1134" y="397" style="stroke-width:0;stroke:none;fill:rgba(51,51,51,1.0);font-size:12.8px;font-family:'Roboto Medium',sans-serif">14.00</text><path  d="M 1124 352
L 1129 352" style="stroke-width:1;stroke:rgba(85,85,85,0.7);fill:none"/><text x="1134" y="358" style="stroke-width:0;stroke:none;fill:rgba(51,51,51,1.0);font-size:12.8px;font-family:'Roboto Medium',sans-serif">28.00</text><path  d="M 1124 316
L 1129 316" style="stroke-width:1;stroke:rgba(85,85,85,0.7);fill:none"/><text x="1134" y="322" style="stroke-width:0;stroke:none;fill:rgba(51,51,51,1.0);font-size:12.8px;font-family:'Roboto Medium',sans-serif">41.00</text><path  d="M 1124 277
L 1129 277" style="stroke-width:1;stroke:rgba(85,85,85,0.7);fill:none"/><text x="1134" y="283" style="stroke-width:0;stroke:none;fill:rgba(51,51,51,1.0);font-size:12.8px;font-family:'Roboto Medium',sans-serif">55.00</text><path  d="M 1124 237
L 1129 237" style="stroke-width:1;stroke:rgba(85,85,85,0.7);fill:none"/><text x="1134" y="243" style="stroke-width:0;stroke:none;fill:rgba(51,51,51,1.0);font-size:12.8px;font-family:'Roboto Medium',sans-serif">69.00</text><path  d="M 1124 201
L 1129 201" style="stroke-width:1;stroke:rgba(85,85,85,0.7);fill:none"/><text x="1134" y="207" style="stroke-width:0;stroke:none;fill:rgba(51,51,51,1.0);font-size:12.8px;font-family:'Roboto Medium',sans-serif">82.00</text><path  d="M 1124 162
L 1129 162" style="stroke-width:1;stroke:rgba(85,85,85,0.7);fill:none"/><text x="1134" y="168" style="stroke-width:0;stroke:none;fill:rgba(51,51,51,1.0);font-size:12.8px;font-family:'Roboto Medium',sans-serif">96.00</text><path  d="M 1124 123
L 1129 123" style="stroke-width:1;stroke:rgba(85,85,85,0.7);fill:none"/><text x="1134" y="129" style="stroke-width:0;stroke:none;fill:rgba(51,51,51,1.0);font-size:12.8px;font-family:'Roboto Medium',sans-serif">110.00</text><path  d="M 1124 86
L 1129 86" style="stroke-width:1;stroke:rgba(85,85,85,0.7);fill:none"/><text x="1134" y="92" style="stroke-width:0;stroke:none;fill:rgba(51,51,51,1.0);font-size:12.8px;font-family:'Roboto Medium',sans-serif">123.00</text><path  d="M 1124 47
L 1129 47" style="stroke-width:1;stroke:rgba(85,85,85,0.7);fill:none"/><text x="1134" y="53" style="stroke-width:0;stroke:none;fill:rgba(51,51,51,1.0);font-size:12.8px;font-family:'Roboto Medium',sans-serif">137.00</text><path  d="M 1124 11
L 1129 11" style="stroke-width:1;stroke:rgba(85,85,85,0.7);fill:none"/><text x="1134" y="17" style="stroke-width:0;stroke:none;fill:rgba(51,51,51,1.0);font-size:12.8px;font-family:'Roboto Medium',sans-serif">150.00</text><text x="1184" y="209" style="stroke-width:0;stroke:none;fill:rgba(51,51,51,1.0);font-size:12.8px;font-family:'Roboto Medium',sans-serif" transform="rotate(90.00,1184,209)">RPS</text><path  d="M 12 391
L 1123 391" style="stroke-width:1;stroke:rgba(0,0,0,0.1);fill:none"/><path  d="M 12 352
L 1123 352" style="stroke-width:1;stroke:rgba(0,0,0,0.1);fill:none"/><path  d="M 12 316
L 1123 316" style="stroke-width:1;stroke:rgba(0,0,0,0.1);fill:none"/><path  d="M 12 277
L 1123 277" style="stroke-width:1;stroke:rgba(0,0,0,0.1);fill:none"/><path  d="M 12 237
L 1123 237" style="stroke-width:1;stroke:rgba(0,0,0,0.1);fill:none"/><path  d="M 12 201
L 1123 201" style="stroke-width:1;stroke:rgba(0,0,0,0.1);fill:none"/><path  d="M 12 162
L 1123 162" style="stroke-width:1;stroke:rgba(0,0,0,0.1);fill:none"/><path  d="M 12 123
L 1123 123" style="stroke-width:1;stroke:rgba(0,0,0,0.1);fill:none"/><path  d="M 12 86
L 1123 86" style="stroke-width:1;stroke:rgba(0,0,0,0.1);fill:none"/><path  d="M 12 47
L 1123 47" style="stroke-width:1;stroke:rgba(0,0,0,0.1);fill:none"/><path  d="M 12 431
L 25 431
L 37 431
L 49 431
L 61 291
L 74 288
L 86 291
L 98 293
L 110 288
L 122 263
L 135 263
L 147 263
L 159 263
L 171 263
L 183 235
L 196 235
L 208 235
L 220 235
L 232 235
L 245 207
L 257 207
L 269 207
L 281 207
L 293 207
L 306 179
L 318 179
L 330 179
L 342 179
L 354 176
L 367 151
L 379 151
L 391 151
L 403 151
L 415 151
L 428 123
L 440 123
L 452 123
L 464 123
L 477 123
L 489 95
L 501 95
L 513 95
L 525 95
L 538 95
L 550 67
L 562 67
L 574 67
L 586 67
L 599 64
L 611 41
L 623 39
L 635 39
L 648 39
L 660 36
L 672 11
L 684 11
L 696 11
L 709 11
L 721 11
L 733 11
L 745 11
L 757 11
L 770 11
L 782 11
L 794 11
L 806 11
L 818 11
L 831 11
L 843 11
L 855 11
L 867 11
L 880 11
L 892 11
L 904 11
L 916 11
L 928 11
L 941 11
L 953 11
L 965 11
L 977 11
L 989 11
L 1002 11
L 1014 11
L 1026 11
L 1038 11
L 1050 11
L 1063 11
L 1075 11
L 1087 19
L 1099 431
L 1111 431
L 1123 431
L 1123 431
L 12 431
L 12 431" style="stroke-width:0;stroke:none;fill:rgba(0,116,217,0.0)"/><path  d="M 12 431
L 25 431
L 37 431
L 49 431
L 61 291
L 74 288
L 86 291
L 98 293
L 110 288
L 122 263
L 135 263
L 147 263
L 159 263
L 171 263
L 183 235
L 196 235
L 208 235
L 220 235
L 232 235
L 245 207
L 257 207
L 269 207
L 281 207
L 293 207
L 306 179
L 318 179
L 330 179
L 342 179
L 354 176
L 367 151
L 379 151
L 391 151
L 403 151
L 415 151
L 428 123
L 440 123
L 452 123
L 464 123
L 477 123
L 489 95
L 501 95
L 513 95
L 525 95
L 538 95
L 550 67
L 562 67
L 574 67
L 586 67
L 599 64
L 611 41
L 623 39
L 635 39
L 648 39
L 660 36
L 672 11
L 684 11
L 696 11
L 709 11
L 721 11
L 733 11
L 745 11
L 757 11
L 770 11
L 782 11
L 794 11
L 806 11
L 818 11
L 831 11
L 843 11
L 855 11
L 867 11
L 880 11
L 892 11
L 904 11
L 916 11
L 928 11
L 941 11
L 953 11
L 965 11
L 977 11
L 989 11
L 1002 11
L 1014 11
L 1026 11
L 1038 11
L 1050 11
L 1063 11
L 1075 11
L 1087 19
L 1099 431
L 1111 431
L 1123 431" style="stroke-width:1;stroke:rgba(0,116,217,1.0);fill:none"/><path  d="M 12 11
L 173 11
L 173 31
L 12 31
L 12 11" style="stroke-width:1;stroke:rgba(51,51,51,1.0);fill:rgba(255,255,255,1.0)"/><text x="17" y="26" style="stroke-width:0;stroke:none;fill:rgba(51,51,51,1.0);font-size:10.2px;font-family:'Roboto Medium',sans-serif">const_c_step_up_rps_aggr</text><path  d="M 143 21
L 163 21" style="stroke-width:1;stroke:rgba(0,116,217,1.0);fill:none"/></svg>