<svg xmlns="http://www.w3.org/2000/svg" xmlns:xlink="http://www.w3.org/1999/xlink" width="1200" height="480">\n<path  d="M 0 0
L 1200 0
L 1200 480
L 0 480
L 0 0" style="stroke-width:0;stroke:rgba(255,255,255,1.0);fill:rgba(255,255,255,1.0)"/><path  d="M 12 11
L 1123 11
L 1123 431
L 12 431
L 12 11" style="stroke-width:0;stroke:rgba(255,255,255,1.0);fill:rgba(255,255,255,1.0)"/><path  d="M 12 431
L 1123 431" style="stroke-width:1;stroke:rgba(85,85,85,0.7);fill:none"/><path  d="M 12 431
L 12 436" style="stroke-width:1;stroke:rgba(85,85,85,0.7);fill:none"/><text x="5" y="453" style="stroke-width:0;stroke:none;fill:rgba(51,51,51,1.0);font-size:12.8px;font-family:'Roboto Medium',sans-serif">0s</text><path  d="M 50 431
L 50 436" style="stroke-width:1;stroke:rgba(85,85,85,0.7);fill:none"/><text x="43" y="453" style="stroke-width:0;stroke:none;fill:rgba(51,51,51,1.0);font-size:12.8px;font-family:'Roboto Medium',sans-serif">2s</text><path  d="M 87 431
L 87 436" style="stroke-width:1;stroke:rgba(85,85,85,0.7);fill:none"/><text x="80" y="453" style="stroke-width:0;stroke:none;fill:rgba(51,51,51,1.0);font-size:12.8px;font-family:'Roboto Medium',sans-serif">5s</text><path  d="M 125 431
L 125 436" style="stroke-width:1;stroke:rgba(85,85,85,0.7);fill:none"/><text x="118" y="453" style="stroke-width:0;stroke:none;fill:rgba(51,51,51,1.0);font-size:12.8px;font-family:'Roboto Medium',sans-serif">7s</text><path  d="M 162 431
L 162 436" style="stroke-width:1;stroke:rgba(85,85,85,0.7);fill:none"/><text x="151" y="453" style="stroke-width:0;stroke:none;fill:rgba(51,51,51,1.0);font-size:12.8px;font-family:'Roboto Medium',sans-serif">10s</text><path  d="M 198 431
L 198 436" style="stroke-width:1;stroke:rgba(85,85,85,0.7);fill:none"/><text x="187" y="453" style="stroke-width:0;stroke:none;fill:rgba(51,51,51,1.0);font-size:12.8px;font-family:'Roboto Medium',sans-serif">12s</text><path  d="M 235 431
L 235 436" style="stroke-width:1;stroke:rgba(85,85,85,0.7);fill:none"/><text x="224" y="453" style="stroke-width:0;stroke:none;fill:rgba(51,51,51,1.0);font-size:12.8px;font-family:'Roboto Medium',sans-serif">15s</text><path  d="M 273 431
L 273 436" style="stroke-width:1;stroke:rgba(85,85,85,0.7);fill:none"/><text x="262" y="453" style="stroke-width:0;stroke:none;fill:rgba(51,51,51,1.0);font-size:12.8px;font-family:'Roboto Medium',sans-serif">17s</text><path  d="M 310 431
L 310 436" style="stroke-width:1;stroke:rgba(85,85,85,0.7);fill:none"/><text x="299" y="453" style="stroke-width:0;stroke:none;fill:rgba(51,51,51,1.0);font-size:12.8px;font-family:'Roboto Medium',sans-serif">20s</text><path  d="M 346 431
L 346 436" style="stroke-width:1;stroke:rgba(85,85,85,0.7);fill:none"/><text x="335" y="453" style="stroke-width:0;stroke:none;fill:rgba(51,51,51,1.0);font-size:12.8px;font-family:'Roboto Medium',sans-serif">22s</text><path  d="M 383 431
L 383 436" style="stroke-width:1;stroke:rgba(85,85,85,0.7);fill:none"/><text x="372" y="453" style="stroke-width:0;stroke:none;fill:rgba(51,51,51,1.0);font-size:12.8px;font-family:'Roboto Medium',sans-serif">25s</text><path  d="M 421 431
L 421 436" style="stroke-width:1;stroke:rgba(85,85,85,0.7);fill:none"/><text x="410" y="453" style="stroke-width:0;stroke:none;fill:rgba(51,51,51,1.0);font-size:12.8px;font-family:'Roboto Medium',sans-serif">27s</text><path  d="M 458 431
L 458 436" style="stroke-width:1;stroke:rgba(85,85,85,0.7);fill:none"/><text x="447" y="453" style="stroke-width:0;stroke:none;fill:rgba(51,51,51,1.0);font-size:12.8px;font-family:'Roboto Medium',sans-serif">30s</text><path  d="M 495 431
L 495 436" style="stroke-width:1;stroke:rgba(85,85,85,0.7);fill:none"/><text x="484" y="453" style="stroke-width:0;stroke:none;fill:rgba(51,51,51,1.0);font-size:12.8px;font-family:'Roboto Medium',sans-serif">32s</text><path  d="M 531 431
L 531 436" style="stroke-width:1;stroke:rgba(85,85,85,0.7);fill:none"/><text x="520" y="453" style="stroke-width:0;stroke:none;fill:rgba(51,51,51,1.0);font-size:12.8px;font-family:'Roboto Medium',sans-serif">35s</text><path  d="M 569 431
L 569 436" style="stroke-width:1;stroke:rgba(85,85,85,0.7);fill:none"/><text x="558" y="453" style="stroke-width:0;stroke:none;fill:rgba(51,51,51,1.0);font-size:12.8px;font-family:'Roboto Medium',sans-serif">37s</text><path  d="M 606 431
L 606 436" style="stroke-width:1;stroke:rgba(85,85,85,0.7);fill:none"/><text x="595" y="453" style="stroke-width:0;stroke:none;fill:rgba(51,51,51,1.0);font-size:12.8px;font-family:'Roboto Medium',sans-serif">40s</text><path  d="M 643 431
L 643 436" style="stroke-width:1;stroke:rgba(85,85,85,0.7);fill:none"/><text x="632" y="453" style="stroke-width:0;stroke:none;fill:rgba(51,51,51,1.0);font-size:12.8px;font-family:'Roboto Medium',sans-serif">42s</text><path  d="M 679 431
L 679 436" style="stroke-width:1;stroke:rgba(85,85,85,0.7);fill:none"/><text x="668" y="453" style="stroke-width:0;stroke:none;fill:rgba(51,51,51,1.0);font-size:12.8px;font-family:'Roboto Medium',sans-serif">45s</text><path  d="M 717 431
L 717 436" style="stroke-width:1;stroke:rgba(85,85,85,0.7);fill:none"/><text x="706" y="453" style="stroke-width:0;stroke:none;fill:rgba(51,51,51,1.0);font-size:12.8px;font-family:'Roboto Medium',sans-serif">47s</text><path  d="M 754 431
L 754 436" style="stroke-width:1;stroke:rgba(85,85,85,0.7);fill:none"/><text x="743" y="453" style="stroke-width:0;stroke:none;fill:rgba(51,51,51,1.0);font-size:12.8px;font-family:'Roboto Medium',sans-serif">50s</text><path  d="M 791 431
L 791 436" style="stroke-width:1;stroke:rgba(85,85,85,0.7);fill:none"/><text x="780" y="453" style="stroke-width:0;stroke:none;fill:rgba(51,51,51,1.0);font-size:12.8px;font-family:'Roboto Medium',sans-serif">52s</text><path  d="M 829 431
L 829 436" style="stroke-width:1;stroke:rgba(85,85,85,0.7);fill:none"/><text x="818" y="453" style="stroke-width:0;stroke:none;fill:rgba(51,51,51,1.0);font-size:12.8px;font-family:'Roboto Medium',sans-serif">55s</text><path  d="M 864 431
L 864 436" style="stroke-width:1;stroke:rgba(85,85,85,0.7);fill:none"/><text x="853" y="453" style="stroke-width:0;stroke:none;fill:rgba(51,51,51,1.0);font-size:12.8px;font-family:'Roboto Medium',sans-serif">57s</text><path  d="M 902 431
L 902 436" style="stroke-width:1;stroke:rgba(85,85,85,0.7);fill:none"/><text x="891" y="453" style="stroke-width:0;stroke:none;fill:rgba(51,51,51,1.0);font-size:12.8px;font-family:'Roboto Medium',sans-serif">59s</text><path  d="M 939 431
L 939 436" style="stroke-width:1;stroke:rgba(85,85,85,0.7);fill:none"/><text x="923" y="453" style="stroke-width:0;stroke:none;fill:rgba(51,51,51,1.0);font-size:12.8px;font-family:'Roboto Medium',sans-serif">1m2s</text><path  d="M 977 431
L 977 436" style="stroke-width:1;stroke:rgba(85,85,85,0.7);fill:none"/><text x="961" y="453" style="stroke-width:0;stroke:none;fill:rgba(51,51,51,1.0);font-size:12.8px;font-family:'Roboto Medium',sans-serif">1m4s</text><path  d="M 1012 431
L 1012 436" style="stroke-width:1;stroke:rgba(85,85,85,0.7);fill:none"/><text x="996" y="453" style="stroke-width:0;stroke:none;fill:rgba(51,51,51,1.0);font-size:12.8px;font-family:'Roboto Medium',sans-serif">1m7s</text><path  d="M 1050 431
L 1050 436" style="stroke-width:1;stroke:rgba(85,85,85,0.7);fill:none"/><text x="1034" y="453" style="stroke-width:0;stroke:none;fill:rgba(51,51,51,1.0);font-size:12.8px;font-family:'Roboto Medium',sans-serif">1m9s</text><path  d="M 1087 431
L 1087 436" style="stroke-width:1;stroke:rgba(85,85,85,0.7);fill:none"/><text x="1067" y="453" style="stroke-width:0;stroke:none;fill:rgba(51,51,51,1.0);font-size:12.8px;font-family:'Roboto Medium',sans-serif">1m12s</text><path  d="M 1123 431
L 1123 436" style="stroke-width:1;stroke:rgba(85,85,85,0.7);fill:none"/><text x="1103" y="453" style="stroke-width:0;stroke:none;fill:rgba(51,51,51,1.0);font-size:12.8px;font-family:'Roboto Medium',sans-serif">1m14s</text><text x="553" y="475" style="stroke-width:0;stroke:none;fill:rgba(51,51,51,1.0);font-size:12.8px;font-family:'Roboto Medium',sans-serif">Time</text><path  d="M 50 431
L 50 11" style="stroke-width:1;stroke:rgba(0,0,0,0.1);fill:none"/><path  d="M 87 431
L 87 11" style="stroke-width:1;stroke:rgba(0,0,0,0.1);fill:none"/><path  d="M 125 431
L 125 11" style="stroke-width:1;stroke:rgba(0,0,0,0.1);fill:none"/><path  d="M 162 431
L 162 11" style="stroke-width:1;stroke:rgba(0,0,0,0.1);fill:none"/><path  d="M 198 431
L 198 11" style="stroke-width:1;stroke:rgba(0,0,0,0.1);fill:none"/><path  d="M 235 431
L 235 11" style="stroke-width:1;stroke:rgba(0,0,0,0.1);fill:none"/><path  d="M 273 431
L 273 11" style="stroke-width:1;stroke:rgba(0,0,0,0.1);fill:none"/><path  d="M 310 431
L 310 11" style="stroke-width:1;stroke:rgba(0,0,0,0.1);fill:none"/><path  d="M 346 431
L 346 11" style="stroke-width:1;stroke:rgba(0,0,0,0.1);fill:none"/><path  d="M 383 431
L 383 11" style="stroke-width:1;stroke:rgba(0,0,0,0.1);fill:none"/><path  d="M 421 431
L 421 11" style="stroke-width:1;stroke:rgba(0,0,0,0.1);fill:none"/><path  d="M 458 431
L 458 11" style="stroke-width:1;stroke:rgba(0,0,0,0.1);fill:none"/><path  d="M 495 431
L 495 11" style="stroke-width:1;stroke:rgba(0,0,0,0.1);fill:none"/><path  d="M 531 431
L 531 11" style="stroke-width:1;stroke:rgba(0,0,0,0.1);fill:none"/><path  d="M 569 431
L 569 11" style="stroke-width:1;stroke:rgba(0,0,0,0.1);fill:none"/><path  d="M 606 431
L 606 11" style="stroke-width:1;stroke:rgba(0,0,0,0.1);fill:none"/><path  d="M 643 431
L 643 11" style="stroke-width:1;stroke:rgba(0,0,0,0.1);fill:none"/><path  d="M 679 431
L 679 11" style="stroke-width:1;stroke:rgba(0,0,0,0.1);fill:none"/><path  d="M 717 431
L 717 11" style="stroke-width:1;stroke:rgba(0,0,0,0.1);fill:none"/><path  d="M 754 431
L 754 11" style="stroke-width:1;stroke:rgba(0,0,0,0.1);fill:none"/><path  d="M 791 431
L 791 11" style="stroke-width:1;stroke:rgba(0,0,0,0.1);fill:none"/><path  d="M 829 431
L 829 11" style="stroke-width:1;stroke:rgba(0,0,0,0.1);fill:none"/><path  d="M 864 431
L 864 11" style="stroke-width:1;stroke:rgba(0,0,0,0.1);fill:none"/><path  d="M 902 431
L 902 11" style="stroke-width:1;stroke:rgba(0,0,0,0.1);fill:none"/><path  d="M 939 431
L 939 11" style="stroke-width:1;stroke:rgba(0,0,0,0.1);fill:none"/><path  d="M 977 431
L 977 11" style="stroke-width:1;stroke:rgba(0,0,0,0.1);fill:none"/><path  d="M 1012 431
L 1012 11" style="stroke-width:1;stroke:rgba(0,0,0,0.1);fill:none"/><path  d="M 1050 431
L 1050 11" style="stroke-width:1;stroke:rgba(0,0,0,0.1);fill:none"/><path  d="M 1087 431
L 1087 11" style="stroke-width:1;stroke:rgba(0,0,0,0.1);fill:none"/><path  d="M 1124 431
L 1124 11" style="stroke-width:1;stroke:rgba(85,85,85,0.7);fill:none"/><path  d="M 1124 431
L 1129 431" style="stroke-width:1;stroke:rgba(85,85,85,0.7);fill:none"/><text x="1134" y="437" style="stroke-width:0;stroke:none;fill:rgba(51,51,51,1.0);font-size:12.8px;font-family:'Roboto Medium',sans-serif">0.00</text><path  d="M 1124 391
L 1129 391" style="stroke-width:1;stroke:rgba(85,85,85,0.7);fill:none"/><text x="1134" y="397" style="stroke-width:0;stroke:none;fill:rgba(51,51,51,1.0);font-size:12.8px;font-family:'Roboto Medium',sans-serif">20.00</text><path  d="M 1124 353
L 1129 353" style="stroke-width:1;stroke:rgba(85,85,85,0.7);fill:none"/><text x="1134" y="359" style="stroke-width:0;stroke:none;fill:rgba(51,51,51,1.0);font-size:12.8px;font-family:'Roboto Medium',sans-serif">39.00</text><path  d="M 1124 314
L 1129 314" style="stroke-width:1;stroke:rgba(85,85,85,0.7);fill:none"/><text x="1134" y="320" style="stroke-width:0;stroke:none;fill:rgba(51,51,51,1.0);font-size:12.8px;font-family:'Roboto Medium',sans-serif">58.00</text><path  d="M 1124 277
L 1129 277" style="stroke-width:1;stroke:rgba(85,85,85,0.7);fill:none"/><text x="1134" y="283" style="stroke-width:0;stroke:none;fill:rgba(51,51,51,1.0);font-size:12.8px;font-family:'Roboto Medium',sans-serif">77.00</text><path  d="M 1124 239
L 1129 239" style="stroke-width:1;stroke:rgba(85,85,85,0.7);fill:none"/><text x="1134" y="245" style="stroke-width:0;stroke:none;fill:rgba(51,51,51,1.0);font-size:12.8px;font-family:'Roboto Medium',sans-serif">96.00</text><path  d="M 1124 200
L 1129 200" style="stroke-width:1;stroke:rgba(85,85,85,0.7);fill:none"/><text x="1134" y="206" style="stroke-width:0;stroke:none;fill:rgba(51,51,51,1.0);font-size:12.8px;font-family:'Roboto Medium',sans-serif">115.00</text><path  d="M 1124 163
L 1129 163" style="stroke-width:1;stroke:rgba(85,85,85,0.7);fill:none"/><text x="1134" y="169" style="stroke-width:0;stroke:none;fill:rgba(51,51,51,1.0);font-size:12.8px;font-family:'Roboto Medium',sans-serif">134.00</text><path  d="M 1124 125
L 1129 125" style="stroke-width:1;stroke:rgba(85,85,85,0.7);fill:none"/><text x="1134" y="131" style="stroke-width:0;stroke:none;fill:rgba(51,51,51,1.0);font-size:12.8px;font-family:'Roboto Medium',sans-serif">153.00</text><path  d="M 1124 87
L 1129 87" style="stroke-width:1;stroke:rgba(85,85,85,0.7);fill:none"/><text x="1134" y="93" style="stroke-width:0;stroke:none;fill:rgba(51,51,51,1.0);font-size:12.8px;font-family:'Roboto Medium',sans-serif">172.00</text><path  d="M 1124 49
L 1129 49" style="stroke-width:1;stroke:rgba(85,85,85,0.7);fill:none"/><text x="1134" y="55" style="stroke-width:0;stroke:none;fill:rgba(51,51,51,1.0);font-size:12.8px;font-family:'Roboto Medium',sans-serif">191.00</text><path  d="M 1124 11
L 1129 11" style="stroke-width:1;stroke:rgba(85,85,85,0.7);fill:none"/><text x="1134" y="17" style="stroke-width:0;stroke:none;fill:rgba(51,51,51,1.0);font-size:12.8px;font-family:'Roboto Medium',sans-serif">210.00</text><text x="1184" y="209" style="stroke-width:0;stroke:none;fill:rgba(51,51,51,1.0);font-size:12.8px;font-family:'Roboto Medium',sans-serif" transform="rotate(90.00,1184,209)">RPS</text><path  d="M 12 391
L 1123 391" style="stroke-width:1;stroke:rgba(0,0,0,0.1);fill:none"/><path  d="M 12 353
L 1123 353" style="stroke-width:1;stroke:rgba(0,0,0,0.1);fill:none"/><path  d="M 12 314
L 1123 314" style="stroke-width:1;stroke:rgba(0,0,0,0.1);fill:none"/><path  d="M 12 277
L 1123 277" style="stroke-width:1;stroke:rgba(0,0,0,0.1);fill:none"/><path  d="M 12 239
L 1123 239" style="stroke-width:1;stroke:rgba(0,0,0,0.1);fill:none"/><path  d="M 12 200
L 1123 200" style="stroke-width:1;stroke:rgba(0,0,0,0.1);fill:none"/><path  d="M 12 163
L 1123 163" style="stroke-width:1;stroke:rgba(0,0,0,0.1);fill:none"/><path  d="M 12 125
L 1123 125" style="stroke-width:1;stroke:rgba(0,0,0,0.1);fill:none"/><path  d="M 12 87
L 1123 87" style="stroke-width:1;stroke:rgba(0,0,0,0.1);fill:none"/><path  d="M 12 49
L 1123 49" style="stroke-width:1;stroke:rgba(0,0,0,0.1);fill:none"/><path  d="M 12 431
L 27 431
L 42 431
L 57 431
L 72 29
L 87 33
L 102 29
L 117 31
L 132 33
L 147 51
L 162 51
L 177 51
L 192 51
L 207 49
L 222 71
L 237 73
L 252 71
L 267 71
L 282 71
L 296 91
L 311 91
L 326 91
L 341 91
L 356 91
L 371 111
L 386 111
L 401 111
L 416 111
L 431 111
L 446 131
L 461 131
L 476 131
L 491 131
L 506 131
L 521 151
L 536 151
L 551 151
L 566 151
L 580 151
L 595 171
L 610 171
L 625 171
L 640 171
L 655 171
L 670 191
L 685 191
L 700 191
L 715 191
L 730 191
L 745 191
L 760 191
L 775 191
L 790 191
L 805 191
L 820 191
L 835 191
L 850 191
L 864 191
L 879 191
L 894 191
L 909 191
L 924 191
L 939 191
L 954 191
L 969 191
L 984 191
L 999 191
L 1014 191
L 1029 191
L 1044 191
L 1059 191
L 1074 191
L 1089 351
L 1094 431
L 1109 431
L 1123 431
L 1123 431
L 12 431
L 12 431" style="stroke-width:0;stroke:none;fill:rgba(0,116,217,0.0)"/><path  d="M 12 431
L 27 431
L 42 431
L 57 431
L 72 29
L 87 33
L 102 29
L 117 31
L 132 33
L 147 51
L 162 51
L 177 51
L 192 51
L 207 49
L 222 71
L 237 73
L 252 71
L 267 71
L 282 71
L 296 91
L 311 91
L 326 91
L 341 91
L 356 91
L 371 111
L 386 111
L 401 111
L 416 111
L 431 111
L 446 131
L 461 131
L 476 131
L 491 131
L 506 131
L 521 151
L 536 151
L 551 151
L 566 151
L 580 151
L 595 171
L 610 171
L 625 171
L 640 171
L 655 171
L 670 191
L 685 191
L 700 191
L 715 191
L 730 191
L 745 191
L 760 191
L 775 191
L 790 191
L 805 191
L 820 191
L 835 191
L 850 191
L 864 191
L 879 191
L 894 191
L 909 191
L 924 191
L 939 191
L 954 191
L 969 191
L 984 191
L 999 191
L 1014 191
L 1029 191
L 1044 191
L 1059 191
L 1074 191
L 1089 351
L 1094 431
L 1109 431
L 1123 431" style="stroke-width:1;stroke:rgba(0,116,217,1.0);fill:none"/><path  d="M 12 11
L 187 11
L 187 31
L 12 31
L 12 11" style="stroke-width:1;stroke:rgba(51,51,51,1.0);fill:rgba(255,255,255,1.0)"/><text x="17" y="26" style="stroke-width:0;stroke:none;fill:rgba(51,51,51,1.0);font-size:10.2px;font-family:'Roboto Medium',sans-serif">const_c_step_down_rps_aggr</text><path  d="M 157 21
L 177 21" style="stroke-width:1;stroke:rgba(0,116,217,1.0);fill:none"/></svg>