<svg xmlns="http://www.w3.org/2000/svg" xmlns:xlink="http://www.w3.org/1999/xlink" width="1200" height="480">\n<path  d="M 0 0
L 1200 0
L 1200 480
L 0 480
L 0 0" style="stroke-width:0;stroke:rgba(255,255,255,1.0);fill:rgba(255,255,255,1.0)"/><path  d="M 12 11
L 1123 11
L 1123 431
L 12 431
L 12 11" style="stroke-width:0;stroke:rgba(255,255,255,1.0);fill:rgba(255,255,255,1.0)"/><path  d="M 12 431
L 1123 431" style="stroke-width:1;stroke:rgba(85,85,85,0.7);fill:none"/><path  d="M 12 431
L 12 436" style="stroke-width:1;stroke:rgba(85,85,85,0.7);fill:none"/><text x="5" y="453" style="stroke-width:0;stroke:none;fill:rgba(51,51,51,1.0);font-size:12.8px;font-family:'Roboto Medium',sans-serif">0s</text><path  d="M 50 431
L 50 436" style="stroke-width:1;stroke:rgba(85,85,85,0.7);fill:none"/><text x="43" y="453" style="stroke-width:0;stroke:none;fill:rgba(51,51,51,1.0);font-size:12.8px;font-family:'Roboto Medium',sans-serif">3s</text><path  d="M 87 431
L 87 436" style="stroke-width:1;stroke:rgba(85,85,85,0.7);fill:none"/><text x="80" y="453" style="stroke-width:0;stroke:none;fill:rgba(51,51,51,1.0);font-size:12.8px;font-family:'Roboto Medium',sans-serif">5s</text><path  d="M 124 431
L 124 436" style="stroke-width:1;stroke:rgba(85,85,85,0.7);fill:none"/><text x="117" y="453" style="stroke-width:0;stroke:none;fill:rgba(51,51,51,1.0);font-size:12.8px;font-family:'Roboto Medium',sans-serif">8s</text><path  d="M 162 431
L 162 436" style="stroke-width:1;stroke:rgba(85,85,85,0.7);fill:none"/><text x="151" y="453" style="stroke-width:0;stroke:none;fill:rgba(51,51,51,1.0);font-size:12.8px;font-family:'Roboto Medium',sans-serif">11s</text><path  d="M 199 431
L 199 436" style="stroke-width:1;stroke:rgba(85,85,85,0.7);fill:none"/><text x="188" y="453" style="stroke-width:0;stroke:none;fill:rgba(51,51,51,1.0);font-size:12.8px;font-family:'Roboto Medium',sans-serif">14s</text><path  d="M 235 431
L 235 436" style="stroke-width:1;stroke:rgba(85,85,85,0.7);fill:none"/><text x="224" y="453" style="stroke-width:0;stroke:none;fill:rgba(51,51,51,1.0);font-size:12.8px;font-family:'Roboto Medium',sans-serif">16s</text><path  d="M 272 431
L 272 436" style="stroke-width:1;stroke:rgba(85,85,85,0.7);fill:none"/><text x="261" y="453" style="stroke-width:0;stroke:none;fill:rgba(51,51,51,1.0);font-size:12.8px;font-family:'Roboto Medium',sans-serif">19s</text><path  d="M 309 431
L 309 436" style="stroke-width:1;stroke:rgba(85,85,85,0.7);fill:none"/><text x="298" y="453" style="stroke-width:0;stroke:none;fill:rgba(51,51,51,1.0);font-size:12.8px;font-family:'Roboto Medium',sans-serif">22s</text><path  d="M 347 431
L 347 436" style="stroke-width:1;stroke:rgba(85,85,85,0.7);fill:none"/><text x="336" y="453" style="stroke-width:0;stroke:none;fill:rgba(51,51,51,1.0);font-size:12.8px;font-family:'Roboto Medium',sans-serif">24s</text><path  d="M 384 431
L 384 436" style="stroke-width:1;stroke:rgba(85,85,85,0.7);fill:none"/><text x="373" y="453" style="stroke-width:0;stroke:none;fill:rgba(51,51,51,1.0);font-size:12.8px;font-family:'Roboto Medium',sans-serif">27s</text><path  d="M 421 431
L 421 436" style="stroke-width:1;stroke:rgba(85,85,85,0.7);fill:none"/><text x="410" y="453" style="stroke-width:0;stroke:none;fill:rgba(51,51,51,1.0);font-size:12.8px;font-family:'Roboto Medium',sans-serif">30s</text><path  d="M 457 431
L 457 436" style="stroke-width:1;stroke:rgba(85,85,85,0.7);fill:none"/><text x="446" y="453" style="stroke-width:0;stroke:none;fill:rgba(51,51,51,1.0);font-size:12.8px;font-family:'Roboto Medium',sans-serif">32s</text><path  d="M 494 431
L 494 436" style="stroke-width:1;stroke:rgba(85,85,85,0.7);fill:none"/><text x="483" y="453" style="stroke-width:0;stroke:none;fill:rgba(51,51,51,1.0);font-size:12.8px;font-family:'Roboto Medium',sans-serif">35s</text><path  d="M 531 431
L 531 436" style="stroke-width:1;stroke:rgba(85,85,85,0.7);fill:none"/><text x="520" y="453" style="stroke-width:0;stroke:none;fill:rgba(51,51,51,1.0);font-size:12.8px;font-family:'Roboto Medium',sans-serif">38s</text><path  d="M 569 431
L 569 436" style="stroke-width:1;stroke:rgba(85,85,85,0.7);fill:none"/><text x="558" y="453" style="stroke-width:0;stroke:none;fill:rgba(51,51,51,1.0);font-size:12.8px;font-family:'Roboto Medium',sans-serif">40s</text><path  d="M 606 431
L 606 436" style="stroke-width:1;stroke:rgba(85,85,85,0.7);fill:none"/><text x="595" y="453" style="stroke-width:0;stroke:none;fill:rgba(51,51,51,1.0);font-size:12.8px;font-family:'Roboto Medium',sans-serif">43s</text><path  d="M 643 431
L 643 436" style="stroke-width:1;stroke:rgba(85,85,85,0.7);fill:none"/><text x="632" y="453" style="stroke-width:0;stroke:none;fill:rgba(51,51,51,1.0);font-size:12.8px;font-family:'Roboto Medium',sans-serif">46s</text><path  d="M 679 431
L 679 436" style="stroke-width:1;stroke:rgba(85,85,85,0.7);fill:none"/><text x="668" y="453" style="stroke-width:0;stroke:none;fill:rgba(51,51,51,1.0);font-size:12.8px;font-family:'Roboto Medium',sans-serif">48s</text><path  d="M 716 431
L 716 436" style="stroke-width:1;stroke:rgba(85,85,85,0.7);fill:none"/><text x="705" y="453" style="stroke-width:0;stroke:none;fill:rgba(51,51,51,1.0);font-size:12.8px;font-family:'Roboto Medium',sans-serif">51s</text><path  d="M 754 431
L 754 436" style="stroke-width:1;stroke:rgba(85,85,85,0.7);fill:none"/><text x="743" y="453" style="stroke-width:0;stroke:none;fill:rgba(51,51,51,1.0);font-size:12.8px;font-family:'Roboto Medium',sans-serif">54s</text><path  d="M 791 431
L 791 436" style="stroke-width:1;stroke:rgba(85,85,85,0.7);fill:none"/><text x="780" y="453" style="stroke-width:0;stroke:none;fill:rgba(51,51,51,1.0);font-size:12.8px;font-family:'Roboto Medium',sans-serif">56s</text><path  d="M 828 431
L 828 436" style="stroke-width:1;stroke:rgba(85,85,85,0.7);fill:none"/><text x="817" y="453" style="stroke-width:0;stroke:none;fill:rgba(51,51,51,1.0);font-size:12.8px;font-family:'Roboto Medium',sans-serif">59s</text><path  d="M 865 431
L 865 436" style="stroke-width:1;stroke:rgba(85,85,85,0.7);fill:none"/><text x="849" y="453" style="stroke-width:0;stroke:none;fill:rgba(51,51,51,1.0);font-size:12.8px;font-family:'Roboto Medium',sans-serif">1m2s</text><path  d="M 901 431
L 901 436" style="stroke-width:1;stroke:rgba(85,85,85,0.7);fill:none"/><text x="885" y="453" style="stroke-width:0;stroke:none;fill:rgba(51,51,51,1.0);font-size:12.8px;font-family:'Roboto Medium',sans-serif">1m4s</text><path  d="M 939 431
L 939 436" style="stroke-width:1;stroke:rgba(85,85,85,0.7);fill:none"/><text x="923" y="453" style="stroke-width:0;stroke:none;fill:rgba(51,51,51,1.0);font-size:12.8px;font-family:'Roboto Medium',sans-serif">1m7s</text><path  d="M 976 431
L 976 436" style="stroke-width:1;stroke:rgba(85,85,85,0.7);fill:none"/><text x="956" y="453" style="stroke-width:0;stroke:none;fill:rgba(51,51,51,1.0);font-size:12.8px;font-family:'Roboto Medium',sans-serif">1m10s</text><path  d="M 1013 431
L 1013 436" style="stroke-width:1;stroke:rgba(85,85,85,0.7);fill:none"/><text x="993" y="453" style="stroke-width:0;stroke:none;fill:rgba(51,51,51,1.0);font-size:12.8px;font-family:'Roboto Medium',sans-serif">1m13s</text><path  d="M 1050 431
L 1050 436" style="stroke-width:1;stroke:rgba(85,85,85,0.7);fill:none"/><text x="1030" y="453" style="stroke-width:0;stroke:none;fill:rgba(51,51,51,1.0);font-size:12.8px;font-family:'Roboto Medium',sans-serif">1m15s</text><path  d="M 1088 431
L 1088 436" style="stroke-width:1;stroke:rgba(85,85,85,0.7);fill:none"/><text x="1068" y="453" style="stroke-width:0;stroke:none;fill:rgba(51,51,51,1.0);font-size:12.8px;font-family:'Roboto Medium',sans-serif">1m18s</text><path  d="M 1123 431
L 1123 436" style="stroke-width:1;stroke:rgba(85,85,85,0.7);fill:none"/><text x="1103" y="453" style="stroke-width:0;stroke:none;fill:rgba(51,51,51,1.0);font-size:12.8px;font-family:'Roboto Medium',sans-serif">1m20s</text><text x="553" y="475" style="stroke-width:0;stroke:none;fill:rgba(51,51,51,1.0);font-size:12.8px;font-family:'Roboto Medium',sans-serif">Time</text><path  d="M 50 431
L 50 11" style="stroke-width:1;stroke:rgba(0,0,0,0.1);fill:none"/><path  d="M 87 431
L 87 11" style="stroke-width:1;stroke:rgba(0,0,0,0.1);fill:none"/><path  d="M 124 431
L 124 11" style="stroke-width:1;stroke:rgba(0,0,0,0.1);fill:none"/><path  d="M 162 431
L 162 11" style="stroke-width:1;stroke:rgba(0,0,0,0.1);fill:none"/><path  d="M 199 431
L 199 11" style="stroke-width:1;stroke:rgba(0,0,0,0.1);fill:none"/><path  d="M 235 431
L 235 11" style="stroke-width:1;stroke:rgba(0,0,0,0.1);fill:none"/><path  d="M 272 431
L 272 11" style="stroke-width:1;stroke:rgba(0,0,0,0.1);fill:none"/><path  d="M 309 431
L 309 11" style="stroke-width:1;stroke:rgba(0,0,0,0.1);fill:none"/><path  d="M 347 431
L 347 11" style="stroke-width:1;stroke:rgba(0,0,0,0.1);fill:none"/><path  d="M 384 431
L 384 11" style="stroke-width:1;stroke:rgba(0,0,0,0.1);fill:none"/><path  d="M 421 431
L 421 11" style="stroke-width:1;stroke:rgba(0,0,0,0.1);fill:none"/><path  d="M 457 431
L 457 11" style="stroke-width:1;stroke:rgba(0,0,0,0.1);fill:none"/><path  d="M 494 431
L 494 11" style="stroke-width:1;stroke:rgba(0,0,0,0.1);fill:none"/><path  d="M 531 431
L 531 11" style="stroke-width:1;stroke:rgba(0,0,0,0.1);fill:none"/><path  d="M 569 431
L 569 11" style="stroke-width:1;stroke:rgba(0,0,0,0.1);fill:none"/><path  d="M 606 431
L 606 11" style="stroke-width:1;stroke:rgba(0,0,0,0.1);fill:none"/><path  d="M 643 431
L 643 11" style="stroke-width:1;stroke:rgba(0,0,0,0.1);fill:none"/><path  d="M 679 431
L 679 11" style="stroke-width:1;stroke:rgba(0,0,0,0.1);fill:none"/><path  d="M 716 431
L 716 11" style="stroke-width:1;stroke:rgba(0,0,0,0.1);fill:none"/><path  d="M 754 431
L 754 11" style="stroke-width:1;stroke:rgba(0,0,0,0.1);fill:none"/><path  d="M 791 431
L 791 11" style="stroke-width:1;stroke:rgba(0,0,0,0.1);fill:none"/><path  d="M 828 431
L 828 11" style="stroke-width:1;stroke:rgba(0,0,0,0.1);fill:none"/><path  d="M 865 431
L 865 11" style="stroke-width:1;stroke:rgba(0,0,0,0.1);fill:none"/><path  d="M 901 431
L 901 11" style="stroke-width:1;stroke:rgba(0,0,0,0.1);fill:none"/><path  d="M 939 431
L 939 11" style="stroke-width:1;stroke:rgba(0,0,0,0.1);fill:none"/><path  d="M 976 431
L 976 11" style="stroke-width:1;stroke:rgba(0,0,0,0.1);fill:none"/><path  d="M 1013 431
L 1013 11" style="stroke-width:1;stroke:rgba(0,0,0,0.1);fill:none"/><path  d="M 1050 431
L 1050 11" style="stroke-width:1;stroke:rgba(0,0,0,0.1);fill:none"/><path  d="M 1088 431
L 1088 11" style="stroke-width:1;stroke:rgba(0,0,0,0.1);fill:none"/><path  d="M 1124 431
L 1124 11" style="stroke-width:1;stroke:rgba(85,85,85,0.7);fill:none"/><path  d="M 1124 431
L 1129 431" style="stroke-width:1;stroke:rgba(85,85,85,0.7);fill:none"/><text x="1134" y="437" style="stroke-width:0;stroke:none;fill:rgba(51,51,51,1.0);font-size:12.8px;font-family:'Roboto Medium',sans-serif">0.00</text><path  d="M 1124 391
L 1129 391" style="stroke-width:1;stroke:rgba(85,85,85,0.7);fill:none"/><text x="1134" y="397" style="stroke-width:0;stroke:none;fill:rgba(51,51,51,1.0);font-size:12.8px;font-family:'Roboto Medium',sans-serif">20.00</text><path  d="M 1124 353
L 1129 353" style="stroke-width:1;stroke:rgba(85,85,85,0.7);fill:none"/><text x="1134" y="359" style="stroke-width:0;stroke:none;fill:rgba(51,51,51,1.0);font-size:12.8px;font-family:'Roboto Medium',sans-serif">39.00</text><path  d="M 1124 314
L 1129 314" style="stroke-width:1;stroke:rgba(85,85,85,0.7);fill:none"/><text x="1134" y="320" style="stroke-width:0;stroke:none;fill:rgba(51,51,51,1.0);font-size:12.8px;font-family:'Roboto Medium',sans-serif">58.00</text><path  d="M 1124 277
L 1129 277" style="stroke-width:1;stroke:rgba(85,85,85,0.7);fill:none"/><text x="1134" y="283" style="stroke-width:0;stroke:none;fill:rgba(51,51,51,1.0);font-size:12.8px;font-family:'Roboto Medium',sans-serif">77.00</text><path  d="M 1124 239
L 1129 239" style="stroke-width:1;stroke:rgba(85,85,85,0.7);fill:none"/><text x="1134" y="245" style="stroke-width:0;stroke:none;fill:rgba(51,51,51,1.0);font-size:12.8px;font-family:'Roboto Medium',sans-serif">96.00</text><path  d="M 1124 200
L 1129 200" style="stroke-width:1;stroke:rgba(85,85,85,0.7);fill:none"/><text x="1134" y="206" style="stroke-width:0;stroke:none;fill:rgba(51,51,51,1.0);font-size:12.8px;font-family:'Roboto Medium',sans-serif">115.00</text><path  d="M 1124 163
L 1129 163" style="stroke-width:1;stroke:rgba(85,85,85,0.7);fill:none"/><text x="1134" y="169" style="stroke-width:0;stroke:none;fill:rgba(51,51,51,1.0);font-size:12.8px;font-family:'Roboto Medium',sans-serif">134.00</text><path  d="M 1124 125
L 1129 125" style="stroke-width:1;stroke:rgba(85,85,85,0.7);fill:none"/><text x="1134" y="131" style="stroke-width:0;stroke:none;fill:rgba(51,51,51,1.0);font-size:12.8px;font-family:'Roboto Medium',sans-serif">153.00</text><path  d="M 1124 87
L 1129 87" style="stroke-width:1;stroke:rgba(85,85,85,0.7);fill:none"/><text x="1134" y="93" style="stroke-width:0;stroke:none;fill:rgba(51,51,51,1.0);font-size:12.8px;font-family:'Roboto Medium',sans-serif">172.00</text><path  d="M 1124 49
L 1129 49" style="stroke-width:1;stroke:rgba(85,85,85,0.7);fill:none"/><text x="1134" y="55" style="stroke-width:0;stroke:none;fill:rgba(51,51,51,1.0);font-size:12.8px;font-family:'Roboto Medium',sans-serif">191.00</text><path  d="M 1124 11
L 1129 11" style="stroke-width:1;stroke:rgba(85,85,85,0.7);fill:none"/><text x="1134" y="17" style="stroke-width:0;stroke:none;fill:rgba(51,51,51,1.0);font-size:12.8px;font-family:'Roboto Medium',sans-serif">210.00</text><text x="1184" y="209" style="stroke-width:0;stroke:none;fill:rgba(51,51,51,1.0);font-size:12.8px;font-family:'Roboto Medium',sans-serif" transform="rotate(90.00,1184,209)">RPS</text><path  d="M 12 391
L 1123 391" style="stroke-width:1;stroke:rgba(0,0,0,0.1);fill:none"/><path  d="M 12 353
L 1123 353" style="stroke-width:1;stroke:rgba(0,0,0,0.1);fill:none"/><path  d="M 12 314
L 1123 314" style="stroke-width:1;stroke:rgba(0,0,0,0.1);fill:none"/><path  d="M 12 277
L 1123 277" style="stroke-width:1;stroke:rgba(0,0,0,0.1);fill:none"/><path  d="M 12 239
L 1123 239" style="stroke-width:1;stroke:rgba(0,0,0,0.1);fill:none"/><path  d="M 12 200
L 1123 200" style="stroke-width:1;stroke:rgba(0,0,0,0.1);fill:none"/><path  d="M 12 163
L 1123 163" style="stroke-width:1;stroke:rgba(0,0,0,0.1);fill:none"/><path  d="M 12 125
L 1123 125" style="stroke-width:1;stroke:rgba(0,0,0,0.1);fill:none"/><path  d="M 12 87
L 1123 87" style="stroke-width:1;stroke:rgba(0,0,0,0.1);fill:none"/><path  d="M 12 49
L 1123 49" style="stroke-width:1;stroke:rgba(0,0,0,0.1);fill:none"/><path  d="M 12 431
L 26 431
L 40 431
L 54 431
L 68 29
L 82 37
L 95 39
L 109 41
L 123 47
L 137 51
L 151 55
L 164 61
L 178 61
L 192 67
L 206 73
L 220 73
L 233 81
L 247 83
L 261 87
L 275 89
L 289 95
L 302 99
L 316 105
L 330 107
L 344 111
L 358 115
L 371 119
L 385 123
L 399 127
L 413 131
L 427 135
L 440 139
L 454 143
L 468 147
L 482 151
L 496 155
L 509 159
L 523 163
L 537 167
L 551 171
L 565 175
L 578 179
L 592 183
L 606 186
L 620 191
L 634 195
L 647 198
L 661 203
L 675 207
L 689 211
L 703 215
L 716 219
L 730 223
L 744 227
L 758 231
L 772 231
L 785 231
L 799 231
L 813 231
L 827 231
L 841 231
L 854 231
L 868 231
L 882 231
L 896 231
L 910 231
L 923 231
L 937 231
L 951 231
L 965 231
L 979 231
L 992 231
L 1006 231
L 1020 231
L 1034 231
L 1048 231
L 1061 231
L 1075 231
L 1089 331
L 1096 431
L 1110 431
L 1123 431
L 1123 431
L 12 431
L 12 431" style="stroke-width:0;stroke:none;fill:rgba(0,116,217,0.0)"/><path  d="M 12 431
L 26 431
L 40 431
L 54 431
L 68 29
L 82 37
L 95 39
L 109 41
L 123 47
L 137 51
L 151 55
L 164 61
L 178 61
L 192 67
L 206 73
L 220 73
L 233 81
L 247 83
L 261 87
L 275 89
L 289 95
L 302 99
L 316 105
L 330 107
L 344 111
L 358 115
L 371 119
L 385 123
L 399 127
L 413 131
L 427 135
L 440 139
L 454 143
L 468 147
L 482 151
L 496 155
L 509 159
L 523 163
L 537 167
L 551 171
L 565 175
L 578 179
L 592 183
L 606 186
L 620 191
L 634 195
L 647 198
L 661 203
L 675 207
L 689 211
L 703 215
L 716 219
L 730 223
L 744 227
L 758 231
L 772 231
L 785 231
L 799 231
L 813 231
L 827 231
L 841 231
L 854 231
L 868 231
L 882 231
L 896 231
L 910 231
L 923 231
L 937 231
L 951 231
L 965 231
L 979 231
L 992 231
L 1006 231
L 1020 231
L 1034 231
L 1048 231
L 1061 231
L 1075 231
L 1089 331
L 1096 431
L 1110 431
L 1123 431" style="stroke-width:1;stroke:rgba(0,116,217,1.0);fill:none"/><path  d="M 12 11
L 183 11
L 183 31
L 12 31
L 12 11" style="stroke-width:1;stroke:rgba(51,51,51,1.0);fill:rgba(255,255,255,1.0)"/><text x="17" y="26" style="stroke-width:0;stroke:none;fill:rgba(51,51,51,1.0);font-size:10.2px;font-family:'Roboto Medium',sans-serif">const_c_line_down_rps_aggr</text><path  d="M 153 21
L 173 21" style="stroke-width:1;stroke:rgba(0,116,217,1.0);fill:none"/></svg>