<svg xmlns="http://www.w3.org/2000/svg" xmlns:xlink="http://www.w3.org/1999/xlink" width="1200" height="480">\n<path  d="M 0 0
L 1200 0
L 1200 480
L 0 480
L 0 0" style="stroke-width:0;stroke:rgba(255,255,255,1.0);fill:rgba(255,255,255,1.0)"/><path  d="M 12 11
L 1123 11
L 1123 431
L 12 431
L 12 11" style="stroke-width:0;stroke:rgba(255,255,255,1.0);fill:rgba(255,255,255,1.0)"/><path  d="M 12 431
L 1123 431" style="stroke-width:1;stroke:rgba(85,85,85,0.7);fill:none"/><path  d="M 12 431
L 12 436" style="stroke-width:1;stroke:rgba(85,85,85,0.7);fill:none"/><text x="5" y="453" style="stroke-width:0;stroke:none;fill:rgba(51,51,51,1.0);font-size:12.8px;font-family:'Roboto Medium',sans-serif">0s</text><path  d="M 50 431
L 50 436" style="stroke-width:1;stroke:rgba(85,85,85,0.7);fill:none"/><text x="43" y="453" style="stroke-width:0;stroke:none;fill:rgba(51,51,51,1.0);font-size:12.8px;font-family:'Roboto Medium',sans-serif">2s</text><path  d="M 87 431
L 87 436" style="stroke-width:1;stroke:rgba(85,85,85,0.7);fill:none"/><text x="80" y="453" style="stroke-width:0;stroke:none;fill:rgba(51,51,51,1.0);font-size:12.8px;font-family:'Roboto Medium',sans-serif">5s</text><path  d="M 124 431
L 124 436" style="stroke-width:1;stroke:rgba(85,85,85,0.7);fill:none"/><text x="117" y="453" style="stroke-width:0;stroke:none;fill:rgba(51,51,51,1.0);font-size:12.8px;font-family:'Roboto Medium',sans-serif">7s</text><path  d="M 162 431
L 162 436" style="stroke-width:1;stroke:rgba(85,85,85,0.7);fill:none"/><text x="155" y="453" style="stroke-width:0;stroke:none;fill:rgba(51,51,51,1.0);font-size:12.8px;font-family:'Roboto Medium',sans-serif">9s</text><path  d="M 199 431
L 199 436" style="stroke-width:1;stroke:rgba(85,85,85,0.7);fill:none"/><text x="188" y="453" style="stroke-width:0;stroke:none;fill:rgba(51,51,51,1.0);font-size:12.8px;font-family:'Roboto Medium',sans-serif">11s</text><path  d="M 236 431
L 236 436" style="stroke-width:1;stroke:rgba(85,85,85,0.7);fill:none"/><text x="225" y="453" style="stroke-width:0;stroke:none;fill:rgba(51,51,51,1.0);font-size:12.8px;font-family:'Roboto Medium',sans-serif">14s</text><path  d="M 272 431
L 272 436" style="stroke-width:1;stroke:rgba(85,85,85,0.7);fill:none"/><text x="261" y="453" style="stroke-width:0;stroke:none;fill:rgba(51,51,51,1.0);font-size:12.8px;font-family:'Roboto Medium',sans-serif">16s</text><path  d="M 309 431
L 309 436" style="stroke-width:1;stroke:rgba(85,85,85,0.7);fill:none"/><text x="298" y="453" style="stroke-width:0;stroke:none;fill:rgba(51,51,51,1.0);font-size:12.8px;font-family:'Roboto Medium',sans-serif">18s</text><path  d="M 346 431
L 346 436" style="stroke-width:1;stroke:rgba(85,85,85,0.7);fill:none"/><text x="335" y="453" style="stroke-width:0;stroke:none;fill:rgba(51,51,51,1.0);font-size:12.8px;font-family:'Roboto Medium',sans-serif">21s</text><path  d="M 384 431
L 384 436" style="stroke-width:1;stroke:rgba(85,85,85,0.7);fill:none"/><text x="373" y="453" style="stroke-width:0;stroke:none;fill:rgba(51,51,51,1.0);font-size:12.8px;font-family:'Roboto Medium',sans-serif">23s</text><path  d="M 421 431
L 421 436" style="stroke-width:1;stroke:rgba(85,85,85,0.7);fill:none"/><text x="410" y="453" style="stroke-width:0;stroke:none;fill:rgba(51,51,51,1.0);font-size:12.8px;font-family:'Roboto Medium',sans-serif">25s</text><path  d="M 458 431
L 458 436" style="stroke-width:1;stroke:rgba(85,85,85,0.7);fill:none"/><text x="447" y="453" style="stroke-width:0;stroke:none;fill:rgba(51,51,51,1.0);font-size:12.8px;font-family:'Roboto Medium',sans-serif">27s</text><path  d="M 496 431
L 496 436" style="stroke-width:1;stroke:rgba(85,85,85,0.7);fill:none"/><text x="485" y="453" style="stroke-width:0;stroke:none;fill:rgba(51,51,51,1.0);font-size:12.8px;font-family:'Roboto Medium',sans-serif">30s</text><path  d="M 531 431
L 531 436" style="stroke-width:1;stroke:rgba(85,85,85,0.7);fill:none"/><text x="520" y="453" style="stroke-width:0;stroke:none;fill:rgba(51,51,51,1.0);font-size:12.8px;font-family:'Roboto Medium',sans-serif">32s</text><path  d="M 568 431
L 568 436" style="stroke-width:1;stroke:rgba(85,85,85,0.7);fill:none"/><text x="557" y="453" style="stroke-width:0;stroke:none;fill:rgba(51,51,51,1.0);font-size:12.8px;font-family:'Roboto Medium',sans-serif">34s</text><path  d="M 606 431
L 606 436" style="stroke-width:1;stroke:rgba(85,85,85,0.7);fill:none"/><text x="595" y="453" style="stroke-width:0;stroke:none;fill:rgba(51,51,51,1.0);font-size:12.8px;font-family:'Roboto Medium',sans-serif">37s</text><path  d="M 643 431
L 643 436" style="stroke-width:1;stroke:rgba(85,85,85,0.7);fill:none"/><text x="632" y="453" style="stroke-width:0;stroke:none;fill:rgba(51,51,51,1.0);font-size:12.8px;font-family:'Roboto Medium',sans-serif">39s</text><path  d="M 680 431
L 680 436" style="stroke-width:1;stroke:rgba(85,85,85,0.7);fill:none"/><text x="669" y="453" style="stroke-width:0;stroke:none;fill:rgba(51,51,51,1.0);font-size:12.8px;font-family:'Roboto Medium',sans-serif">41s</text><path  d="M 718 431
L 718 436" style="stroke-width:1;stroke:rgba(85,85,85,0.7);fill:none"/><text x="707" y="453" style="stroke-width:0;stroke:none;fill:rgba(51,51,51,1.0);font-size:12.8px;font-family:'Roboto Medium',sans-serif">43s</text><path  d="M 753 431
L 753 436" style="stroke-width:1;stroke:rgba(85,85,85,0.7);fill:none"/><text x="742" y="453" style="stroke-width:0;stroke:none;fill:rgba(51,51,51,1.0);font-size:12.8px;font-family:'Roboto Medium',sans-serif">46s</text><path  d="M 791 431
L 791 436" style="stroke-width:1;stroke:rgba(85,85,85,0.7);fill:none"/><text x="780" y="453" style="stroke-width:0;stroke:none;fill:rgba(51,51,51,1.0);font-size:12.8px;font-family:'Roboto Medium',sans-serif">48s</text><path  d="M 828 431
L 828 436" style="stroke-width:1;stroke:rgba(85,85,85,0.7);fill:none"/><text x="817" y="453" style="stroke-width:0;stroke:none;fill:rgba(51,51,51,1.0);font-size:12.8px;font-family:'Roboto Medium',sans-serif">50s</text><path  d="M 865 431
L 865 436" style="stroke-width:1;stroke:rgba(85,85,85,0.7);fill:none"/><text x="854" y="453" style="stroke-width:0;stroke:none;fill:rgba(51,51,51,1.0);font-size:12.8px;font-family:'Roboto Medium',sans-serif">53s</text><path  d="M 902 431
L 902 436" style="stroke-width:1;stroke:rgba(85,85,85,0.7);fill:none"/><text x="891" y="453" style="stroke-width:0;stroke:none;fill:rgba(51,51,51,1.0);font-size:12.8px;font-family:'Roboto Medium',sans-serif">55s</text><path  d="M 940 431
L 940 436" style="stroke-width:1;stroke:rgba(85,85,85,0.7);fill:none"/><text x="929" y="453" style="stroke-width:0;stroke:none;fill:rgba(51,51,51,1.0);font-size:12.8px;font-family:'Roboto Medium',sans-serif">57s</text><path  d="M 977 431
L 977 436" style="stroke-width:1;stroke:rgba(85,85,85,0.7);fill:none"/><text x="966" y="453" style="stroke-width:0;stroke:none;fill:rgba(51,51,51,1.0);font-size:12.8px;font-family:'Roboto Medium',sans-serif">59s</text><path  d="M 1013 431
L 1013 436" style="stroke-width:1;stroke:rgba(85,85,85,0.7);fill:none"/><text x="997" y="453" style="stroke-width:0;stroke:none;fill:rgba(51,51,51,1.0);font-size:12.8px;font-family:'Roboto Medium',sans-serif">1m2s</text><path  d="M 1050 431
L 1050 436" style="stroke-width:1;stroke:rgba(85,85,85,0.7);fill:none"/><text x="1034" y="453" style="stroke-width:0;stroke:none;fill:rgba(51,51,51,1.0);font-size:12.8px;font-family:'Roboto Medium',sans-serif">1m4s</text><path  d="M 1087 431
L 1087 436" style="stroke-width:1;stroke:rgba(85,85,85,0.7);fill:none"/><text x="1071" y="453" style="stroke-width:0;stroke:none;fill:rgba(51,51,51,1.0);font-size:12.8px;font-family:'Roboto Medium',sans-serif">1m6s</text><path  d="M 1123 431
L 1123 436" style="stroke-width:1;stroke:rgba(85,85,85,0.7);fill:none"/><text x="1107" y="453" style="stroke-width:0;stroke:none;fill:rgba(51,51,51,1.0);font-size:12.8px;font-family:'Roboto Medium',sans-serif">1m9s</text><text x="553" y="475" style="stroke-width:0;stroke:none;fill:rgba(51,51,51,1.0);font-size:12.8px;font-family:'Roboto Medium',sans-serif">Time</text><path  d="M 50 431
L 50 11" style="stroke-width:1;stroke:rgba(0,0,0,0.1);fill:none"/><path  d="M 87 431
L 87 11" style="stroke-width:1;stroke:rgba(0,0,0,0.1);fill:none"/><path  d="M 124 431
L 124 11" style="stroke-width:1;stroke:rgba(0,0,0,0.1);fill:none"/><path  d="M 162 431
L 162 11" style="stroke-width:1;stroke:rgba(0,0,0,0.1);fill:none"/><path  d="M 199 431
L 199 11" style="stroke-width:1;stroke:rgba(0,0,0,0.1);fill:none"/><path  d="M 236 431
L 236 11" style="stroke-width:1;stroke:rgba(0,0,0,0.1);fill:none"/><path  d="M 272 431
L 272 11" style="stroke-width:1;stroke:rgba(0,0,0,0.1);fill:none"/><path  d="M 309 431
L 309 11" style="stroke-width:1;stroke:rgba(0,0,0,0.1);fill:none"/><path  d="M 346 431
L 346 11" style="stroke-width:1;stroke:rgba(0,0,0,0.1);fill:none"/><path  d="M 384 431
L 384 11" style="stroke-width:1;stroke:rgba(0,0,0,0.1);fill:none"/><path  d="M 421 431
L 421 11" style="stroke-width:1;stroke:rgba(0,0,0,0.1);fill:none"/><path  d="M 458 431
L 458 11" style="stroke-width:1;stroke:rgba(0,0,0,0.1);fill:none"/><path  d="M 496 431
L 496 11" style="stroke-width:1;stroke:rgba(0,0,0,0.1);fill:none"/><path  d="M 531 431
L 531 11" style="stroke-width:1;stroke:rgba(0,0,0,0.1);fill:none"/><path  d="M 568 431
L 568 11" style="stroke-width:1;stroke:rgba(0,0,0,0.1);fill:none"/><path  d="M 606 431
L 606 11" style="stroke-width:1;stroke:rgba(0,0,0,0.1);fill:none"/><path  d="M 643 431
L 643 11" style="stroke-width:1;stroke:rgba(0,0,0,0.1);fill:none"/><path  d="M 680 431
L 680 11" style="stroke-width:1;stroke:rgba(0,0,0,0.1);fill:none"/><path  d="M 718 431
L 718 11" style="stroke-width:1;stroke:rgba(0,0,0,0.1);fill:none"/><path  d="M 753 431
L 753 11" style="stroke-width:1;stroke:rgba(0,0,0,0.1);fill:none"/><path  d="M 791 431
L 791 11" style="stroke-width:1;stroke:rgba(0,0,0,0.1);fill:none"/><path  d="M 828 431
L 828 11" style="stroke-width:1;stroke:rgba(0,0,0,0.1);fill:none"/><path  d="M 865 431
L 865 11" style="stroke-width:1;stroke:rgba(0,0,0,0.1);fill:none"/><path  d="M 902 431
L 902 11" style="stroke-width:1;stroke:rgba(0,0,0,0.1);fill:none"/><path  d="M 940 431
L 940 11" style="stroke-width:1;stroke:rgba(0,0,0,0.1);fill:none"/><path  d="M 977 431
L 977 11" style="stroke-width:1;stroke:rgba(0,0,0,0.1);fill:none"/><path  d="M 1013 431
L 1013 11" style="stroke-width:1;stroke:rgba(0,0,0,0.1);fill:none"/><path  d="M 1050 431
L 1050 11" style="stroke-width:1;stroke:rgba(0,0,0,0.1);fill:none"/><path  d="M 1087 431
L 1087 11" style="stroke-width:1;stroke:rgba(0,0,0,0.1);fill:none"/><path  d="M 1124 431
L 1124 11" style="stroke-width:1;stroke:rgba(85,85,85,0.7);fill:none"/><path  d="M 1124 431
L 1129 431" style="stroke-width:1;stroke:rgba(85,85,85,0.7);fill:none"/><text x="1134" y="437" style="stroke-width:0;stroke:none;fill:rgba(51,51,51,1.0);font-size:12.8px;font-family:'Roboto Medium',sans-serif">0.00</text><path  d="M 1124 391
L 1129 391" style="stroke-width:1;stroke:rgba(85,85,85,0.7);fill:none"/><text x="1134" y="397" style="stroke-width:0;stroke:none;fill:rgba(51,51,51,1.0);font-size:12.8px;font-family:'Roboto Medium',sans-serif">30.00</text><path  d="M 1124 353
L 1129 353" style="stroke-width:1;stroke:rgba(85,85,85,0.7);fill:none"/><text x="1134" y="359" style="stroke-width:0;stroke:none;fill:rgba(51,51,51,1.0);font-size:12.8px;font-family:'Roboto Medium',sans-serif">59.00</text><path  d="M 1124 315
L 1129 315" style="stroke-width:1;stroke:rgba(85,85,85,0.7);fill:none"/><text x="1134" y="321" style="stroke-width:0;stroke:none;fill:rgba(51,51,51,1.0);font-size:12.8px;font-family:'Roboto Medium',sans-serif">88.00</text><path  d="M 1124 277
L 1129 277" style="stroke-width:1;stroke:rgba(85,85,85,0.7);fill:none"/><text x="1134" y="283" style="stroke-width:0;stroke:none;fill:rgba(51,51,51,1.0);font-size:12.8px;font-family:'Roboto Medium',sans-serif">117.00</text><path  d="M 1124 239
L 1129 239" style="stroke-width:1;stroke:rgba(85,85,85,0.7);fill:none"/><text x="1134" y="245" style="stroke-width:0;stroke:none;fill:rgba(51,51,51,1.0);font-size:12.8px;font-family:'Roboto Medium',sans-serif">146.00</text><path  d="M 1124 201
L 1129 201" style="stroke-width:1;stroke:rgba(85,85,85,0.7);fill:none"/><text x="1134" y="207" style="stroke-width:0;stroke:none;fill:rgba(51,51,51,1.0);font-size:12.8px;font-family:'Roboto Medium',sans-serif">175.00</text><path  d="M 1124 163
L 1129 163" style="stroke-width:1;stroke:rgba(85,85,85,0.7);fill:none"/><text x="1134" y="169" style="stroke-width:0;stroke:none;fill:rgba(51,51,51,1.0);font-size:12.8px;font-family:'Roboto Medium',sans-serif">204.00</text><path  d="M 1124 125
L 1129 125" style="stroke-width:1;stroke:rgba(85,85,85,0.7);fill:none"/><text x="1134" y="131" style="stroke-width:0;stroke:none;fill:rgba(51,51,51,1.0);font-size:12.8px;font-family:'Roboto Medium',sans-serif">233.00</text><path  d="M 1124 87
L 1129 87" style="stroke-width:1;stroke:rgba(85,85,85,0.7);fill:none"/><text x="1134" y="93" style="stroke-width:0;stroke:none;fill:rgba(51,51,51,1.0);font-size:12.8px;font-family:'Roboto Medium',sans-serif">262.00</text><path  d="M 1124 49
L 1129 49" style="stroke-width:1;stroke:rgba(85,85,85,0.7);fill:none"/><text x="1134" y="55" style="stroke-width:0;stroke:none;fill:rgba(51,51,51,1.0);font-size:12.8px;font-family:'Roboto Medium',sans-serif">291.00</text><path  d="M 1124 11
L 1129 11" style="stroke-width:1;stroke:rgba(85,85,85,0.7);fill:none"/><text x="1134" y="17" style="stroke-width:0;stroke:none;fill:rgba(51,51,51,1.0);font-size:12.8px;font-family:'Roboto Medium',sans-serif">320.00</text><text x="1184" y="209" style="stroke-width:0;stroke:none;fill:rgba(51,51,51,1.0);font-size:12.8px;font-family:'Roboto Medium',sans-serif" transform="rotate(90.00,1184,209)">RPS</text><path  d="M 12 391
L 1123 391" style="stroke-width:1;stroke:rgba(0,0,0,0.1);fill:none"/><path  d="M 12 353
L 1123 353" style="stroke-width:1;stroke:rgba(0,0,0,0.1);fill:none"/><path  d="M 12 315
L 1123 315" style="stroke-width:1;stroke:rgba(0,0,0,0.1);fill:none"/><path  d="M 12 277
L 1123 277" style="stroke-width:1;stroke:rgba(0,0,0,0.1);fill:none"/><path  d="M 12 239
L 1123 239" style="stroke-width:1;stroke:rgba(0,0,0,0.1);fill:none"/><path  d="M 12 201
L 1123 201" style="stroke-width:1;stroke:rgba(0,0,0,0.1);fill:none"/><path  d="M 12 163
L 1123 163" style="stroke-width:1;stroke:rgba(0,0,0,0.1);fill:none"/><path  d="M 12 125
L 1123 125" style="stroke-width:1;stroke:rgba(0,0,0,0.1);fill:none"/><path  d="M 12 87
L 1123 87" style="stroke-width:1;stroke:rgba(0,0,0,0.1);fill:none"/><path  d="M 12 49
L 1123 49" style="stroke-width:1;stroke:rgba(0,0,0,0.1);fill:none"/><path  d="M 12 431
L 29 431
L 45 431
L 61 431
L 77 421
L 94 416
L 110 410
L 126 404
L 142 395
L 158 390
L 175 383
L 191 377
L 207 370
L 223 364
L 239 357
L 256 350
L 272 344
L 288 337
L 304 331
L 320 324
L 337 318
L 353 311
L 369 305
L 385 298
L 402 291
L 418 285
L 434 278
L 450 272
L 466 265
L 483 259
L 499 252
L 515 245
L 531 238
L 547 232
L 564 226
L 580 219
L 596 213
L 612 206
L 628 199
L 645 193
L 661 186
L 677 180
L 693 173
L 710 167
L 726 160
L 742 154
L 758 147
L 774 140
L 791 134
L 807 127
L 823 121
L 839 114
L 855 108
L 872 101
L 888 93
L 904 88
L 920 83
L 936 74
L 953 68
L 969 62
L 985 55
L 1001 49
L 1018 42
L 1034 35
L 1050 29
L 1066 22
L 1082 207
L 1091 431
L 1107 431
L 1123 431
L 1123 431
L 12 431
L 12 431" style="stroke-width:0;stroke:none;fill:rgba(0,116,217,0.0)"/><path  d="M 12 431
L 29 431
L 45 431
L 61 431
L 77 421
L 94 416
L 110 410
L 126 404
L 142 395
L 158 390
L 175 383
L 191 377
L 207 370
L 223 364
L 239 357
L 256 350
L 272 344
L 288 337
L 304 331
L 320 324
L 337 318
L 353 311
L 369 305
L 385 298
L 402 291
L 418 285
L 434 278
L 450 272
L 466 265
L 483 259
L 499 252
L 515 245
L 531 238
L 547 232
L 564 226
L 580 219
L 596 213
L 612 206
L 628 199
L 645 193
L 661 186
L 677 180
L 693 173
L 710 167
L 726 160
L 742 154
L 758 147
L 774 140
L 791 134
L 807 127
L 823 121
L 839 114
L 855 108
L 872 101
L 888 93
L 904 88
L 920 83
L 936 74
L 953 68
L 969 62
L 985 55
L 1001 49
L 1018 42
L 1034 35
L 1050 29
L 1066 22
L 1082 207
L 1091 431
L 1107 431
L 1123 431" style="stroke-width:1;stroke:rgba(0,116,217,1.0);fill:none"/><path  d="M 12 11
L 170 11
L 170 31
L 12 31
L 12 11" style="stroke-width:1;stroke:rgba(51,51,51,1.0);fill:rgba(255,255,255,1.0)"/><text x="17" y="26" style="stroke-width:0;stroke:none;fill:rgba(51,51,51,1.0);font-size:10.2px;font-family:'Roboto Medium',sans-serif">const_c_line_up_rps_aggr</text><path  d="M 140 21
L 160 21" style="stroke-width:1;stroke:rgba(0,116,217,1.0);fill:none"/></svg>