<svg xmlns="http://www.w3.org/2000/svg" xmlns:xlink="http://www.w3.org/1999/xlink" width="1200" height="480">\n<path  d="M 0 0
L 1200 0
L 1200 480
L 0 480
L 0 0" style="stroke-width:0;stroke:rgba(255,255,255,1.0);fill:rgba(255,255,255,1.0)"/><path  d="M 58 11
L 1130 11
L 1130 431
L 58 431
L 58 11" style="stroke-width:0;stroke:rgba(255,255,255,1.0);fill:rgba(255,255,255,1.0)"/><path  d="M 58 431
L 1130 431" style="stroke-width:1;stroke:rgba(85,85,85,0.7);fill:none"/><path  d="M 58 431
L 58 436" style="stroke-width:1;stroke:rgba(85,85,85,0.7);fill:none"/><text x="5" y="453" style="stroke-width:0;stroke:none;fill:rgba(51,51,51,1.0);font-size:12.8px;font-family:'Roboto Medium',sans-serif">10-25 11:23:34AM</text><path  d="M 238 431
L 238 436" style="stroke-width:1;stroke:rgba(85,85,85,0.7);fill:none"/><text x="185" y="453" style="stroke-width:0;stroke:none;fill:rgba(51,51,51,1.0);font-size:12.8px;font-family:'Roboto Medium',sans-serif">10-25 11:23:43AM</text><path  d="M 417 431
L 417 436" style="stroke-width:1;stroke:rgba(85,85,85,0.7);fill:none"/><text x="364" y="453" style="stroke-width:0;stroke:none;fill:rgba(51,51,51,1.0);font-size:12.8px;font-family:'Roboto Medium',sans-serif">10-25 11:23:52AM</text><path  d="M 597 431
L 597 436" style="stroke-width:1;stroke:rgba(85,85,85,0.7);fill:none"/><text x="544" y="453" style="stroke-width:0;stroke:none;fill:rgba(51,51,51,1.0);font-size:12.8px;font-family:'Roboto Medium',sans-serif">10-25 11:24:01AM</text><path  d="M 774 431
L 774 436" style="stroke-width:1;stroke:rgba(85,85,85,0.7);fill:none"/><text x="721" y="453" style="stroke-width:0;stroke:none;fill:rgba(51,51,51,1.0);font-size:12.8px;font-family:'Roboto Medium',sans-serif">10-25 11:24:09AM</text><path  d="M 953 431
L 953 436" style="stroke-width:1;stroke:rgba(85,85,85,0.7);fill:none"/><text x="900" y="453" style="stroke-width:0;stroke:none;fill:rgba(51,51,51,1.0);font-size:12.8px;font-family:'Roboto Medium',sans-serif">10-25 11:24:18AM</text><path  d="M 1130 431
L 1130 436" style="stroke-width:1;stroke:rgba(85,85,85,0.7);fill:none"/><text x="1077" y="453" style="stroke-width:0;stroke:none;fill:rgba(51,51,51,1.0);font-size:12.8px;font-family:'Roboto Medium',sans-serif">10-25 11:24:26AM</text><text x="579" y="475" style="stroke-width:0;stroke:none;fill:rgba(51,51,51,1.0);font-size:12.8px;font-family:'Roboto Medium',sans-serif">Time</text><path  d="M 238 431
L 238 11" style="stroke-width:1;stroke:rgba(0,0,0,0.1);fill:none"/><path  d="M 417 431
L 417 11" style="stroke-width:1;stroke:rgba(0,0,0,0.1);fill:none"/><path  d="M 597 431
L 597 11" style="stroke-width:1;stroke:rgba(0,0,0,0.1);fill:none"/><path  d="M 774 431
L 774 11" style="stroke-width:1;stroke:rgba(0,0,0,0.1);fill:none"/><path  d="M 953 431
L 953 11" style="stroke-width:1;stroke:rgba(0,0,0,0.1);fill:none"/><path  d="M 1131 431
L 1131 11" style="stroke-width:1;stroke:rgba(85,85,85,0.7);fill:none"/><path  d="M 1131 431
L 1136 431" style="stroke-width:1;stroke:rgba(85,85,85,0.7);fill:none"/><text x="1141" y="437" style="stroke-width:0;stroke:none;fill:rgba(51,51,51,1.0);font-size:12.8px;font-family:'Roboto Medium',sans-serif">0.00</text><path  d="M 1131 392
L 1136 392" style="stroke-width:1;stroke:rgba(85,85,85,0.7);fill:none"/><text x="1141" y="398" style="stroke-width:0;stroke:none;fill:rgba(51,51,51,1.0);font-size:12.8px;font-family:'Roboto Medium',sans-serif">4.60</text><path  d="M 1131 354
L 1136 354" style="stroke-width:1;stroke:rgba(85,85,85,0.7);fill:none"/><text x="1141" y="360" style="stroke-width:0;stroke:none;fill:rgba(51,51,51,1.0);font-size:12.8px;font-family:'Roboto Medium',sans-serif">9.10</text><path  d="M 1131 315
L 1136 315" style="stroke-width:1;stroke:rgba(85,85,85,0.7);fill:none"/><text x="1141" y="321" style="stroke-width:0;stroke:none;fill:rgba(51,51,51,1.0);font-size:12.8px;font-family:'Roboto Medium',sans-serif">13.70</text><path  d="M 1131 278
L 1136 278" style="stroke-width:1;stroke:rgba(85,85,85,0.7);fill:none"/><text x="1141" y="284" style="stroke-width:0;stroke:none;fill:rgba(51,51,51,1.0);font-size:12.8px;font-family:'Roboto Medium',sans-serif">18.20</text><path  d="M 1131 239
L 1136 239" style="stroke-width:1;stroke:rgba(85,85,85,0.7);fill:none"/><text x="1141" y="245" style="stroke-width:0;stroke:none;fill:rgba(51,51,51,1.0);font-size:12.8px;font-family:'Roboto Medium',sans-serif">22.80</text><path  d="M 1131 201
L 1136 201" style="stroke-width:1;stroke:rgba(85,85,85,0.7);fill:none"/><text x="1141" y="207" style="stroke-width:0;stroke:none;fill:rgba(51,51,51,1.0);font-size:12.8px;font-family:'Roboto Medium',sans-serif">27.30</text><path  d="M 1131 163
L 1136 163" style="stroke-width:1;stroke:rgba(85,85,85,0.7);fill:none"/><text x="1141" y="169" style="stroke-width:0;stroke:none;fill:rgba(51,51,51,1.0);font-size:12.8px;font-family:'Roboto Medium',sans-serif">31.90</text><path  d="M 1131 125
L 1136 125" style="stroke-width:1;stroke:rgba(85,85,85,0.7);fill:none"/><text x="1141" y="131" style="stroke-width:0;stroke:none;fill:rgba(51,51,51,1.0);font-size:12.8px;font-family:'Roboto Medium',sans-serif">36.40</text><path  d="M 1131 86
L 1136 86" style="stroke-width:1;stroke:rgba(85,85,85,0.7);fill:none"/><text x="1141" y="92" style="stroke-width:0;stroke:none;fill:rgba(51,51,51,1.0);font-size:12.8px;font-family:'Roboto Medium',sans-serif">41.00</text><path  d="M 1131 48
L 1136 48" style="stroke-width:1;stroke:rgba(85,85,85,0.7);fill:none"/><text x="1141" y="54" style="stroke-width:0;stroke:none;fill:rgba(51,51,51,1.0);font-size:12.8px;font-family:'Roboto Medium',sans-serif">45.50</text><path  d="M 1131 11
L 1136 11" style="stroke-width:1;stroke:rgba(85,85,85,0.7);fill:none"/><text x="1141" y="17" style="stroke-width:0;stroke:none;fill:rgba(51,51,51,1.0);font-size:12.8px;font-family:'Roboto Medium',sans-serif">50.00</text><text x="1184" y="161" style="stroke-width:0;stroke:none;fill:rgba(51,51,51,1.0);font-size:12.8px;font-family:'Roboto Medium',sans-serif" transform="rotate(90.00,1184,161)">step_up_c_const_rps</text><path  d="M 58 392
L 1130 392" style="stroke-width:1;stroke:rgba(0,0,0,0.1);fill:none"/><path  d="M 58 354
L 1130 354" style="stroke-width:1;stroke:rgba(0,0,0,0.1);fill:none"/><path  d="M 58 315
L 1130 315" style="stroke-width:1;stroke:rgba(0,0,0,0.1);fill:none"/><path  d="M 58 278
L 1130 278" style="stroke-width:1;stroke:rgba(0,0,0,0.1);fill:none"/><path  d="M 58 239
L 1130 239" style="stroke-width:1;stroke:rgba(0,0,0,0.1);fill:none"/><path  d="M 58 201
L 1130 201" style="stroke-width:1;stroke:rgba(0,0,0,0.1);fill:none"/><path  d="M 58 163
L 1130 163" style="stroke-width:1;stroke:rgba(0,0,0,0.1);fill:none"/><path  d="M 58 125
L 1130 125" style="stroke-width:1;stroke:rgba(0,0,0,0.1);fill:none"/><path  d="M 58 86
L 1130 86" style="stroke-width:1;stroke:rgba(0,0,0,0.1);fill:none"/><path  d="M 58 48
L 1130 48" style="stroke-width:1;stroke:rgba(0,0,0,0.1);fill:none"/><path  d="M 58 431
L 79 389
L 100 389
L 120 389
L 141 389
L 162 389
L 182 347
L 203 347
L 223 347
L 244 347
L 265 347
L 285 305
L 306 305
L 326 305
L 347 305
L 368 305
L 388 263
L 409 263
L 430 263
L 450 263
L 471 263
L 491 237
L 512 221
L 533 221
L 553 221
L 574 221
L 594 221
L 615 179
L 636 179
L 656 179
L 677 179
L 698 179
L 718 137
L 739 137
L 759 137
L 780 137
L 801 137
L 821 95
L 842 95
L 862 95
L 883 95
L 904 95
L 924 53
L 945 53
L 966 53
L 986 53
L 1007 53
L 1027 11
L 1048 11
L 1069 11
L 1089 11
L 1110 11
L 1130 431" style="stroke-width:1;stroke:rgba(0,116,217,1.0);fill:none"/></svg>