<svg xmlns="http://www.w3.org/2000/svg" width="1200" height="480">\n<path d="M0 0h1200v480H0V0" fill="#fff"/><path d="M12 11h1111v420H12V11" fill="#fff"/><path d="M12 431h1111M12 431v5" stroke="rgba(85,85,85,.7)" fill="none"/><text x="5" y="453" stroke-width="0" fill="#333" font-size="12.8" font-family="'Roboto Medium',sans-serif">0s</text><path d="M50 431v5" stroke="rgba(85,85,85,.7)" fill="none"/><text x="43" y="453" stroke-width="0" fill="#333" font-size="12.8" font-family="'Roboto Medium',sans-serif">3s</text><path d="M87 431v5" stroke="rgba(85,85,85,.7)" fill="none"/><text x="80" y="453" stroke-width="0" fill="#333" font-size="12.8" font-family="'Roboto Medium',sans-serif">5s</text><path d="M124 431v5" stroke="rgba(85,85,85,.7)" fill="none"/><text x="117" y="453" stroke-width="0" fill="#333" font-size="12.8" font-family="'Roboto Medium',sans-serif">8s</text><path d="M162 431v5" stroke="rgba(85,85,85,.7)" fill="none"/><text x="151" y="453" stroke-width="0" fill="#333" font-size="12.8" font-family="'Roboto Medium',sans-serif">11s</text><path d="M199 431v5" stroke="rgba(85,85,85,.7)" fill="none"/><text x="188" y="453" stroke-width="0" fill="#333" font-size="12.8" font-family="'Roboto Medium',sans-serif">14s</text><path d="M235 431v5" stroke="rgba(85,85,85,.7)" fill="none"/><text x="224" y="453" stroke-width="0" fill="#333" font-size="12.8" font-family="'Roboto Medium',sans-serif">16s</text><path d="M272 431v5" stroke="rgba(85,85,85,.7)" fill="none"/><text x="261" y="453" stroke-width="0" fill="#333" font-size="12.8" font-family="'Roboto Medium',sans-serif">19s</text><path d="M309 431v5" stroke="rgba(85,85,85,.7)" fill="none"/><text x="298" y="453" stroke-width="0" fill="#333" font-size="12.8" font-family="'Roboto Medium',sans-serif">22s</text><path d="M347 431v5" stroke="rgba(85,85,85,.7)" fill="none"/><text x="336" y="453" stroke-width="0" fill="#333" font-size="12.8" font-family="'Roboto Medium',sans-serif">24s</text><path d="M384 431v5" stroke="rgba(85,85,85,.7)" fill="none"/><text x="373" y="453" stroke-width="0" fill="#333" font-size="12.8" font-family="'Roboto Medium',sans-serif">27s</text><path d="M421 431v5" stroke="rgba(85,85,85,.7)" fill="none"/><text x="410" y="453" stroke-width="0" fill="#333" font-size="12.8" font-family="'Roboto Medium',sans-serif">30s</text><path d="M457 431v5" stroke="rgba(85,85,85,.7)" fill="none"/><text x="446" y="453" stroke-width="0" fill="#333" font-size="12.8" font-family="'Roboto Medium',sans-serif">32s</text><path d="M494 431v5" stroke="rgba(85,85,85,.7)" fill="none"/><text x="483" y="453" stroke-width="0" fill="#333" font-size="12.8" font-family="'Roboto Medium',sans-serif">35s</text><path d="M531 431v5" stroke="rgba(85,85,85,.7)" fill="none"/><text x="520" y="453" stroke-width="0" fill="#333" font-size="12.8" font-family="'Roboto Medium',sans-serif">38s</text><path d="M569 431v5" stroke="rgba(85,85,85,.7)" fill="none"/><text x="558" y="453" stroke-width="0" fill="#333" font-size="12.8" font-family="'Roboto Medium',sans-serif">40s</text><path d="M606 431v5" stroke="rgba(85,85,85,.7)" fill="none"/><text x="595" y="453" stroke-width="0" fill="#333" font-size="12.8" font-family="'Roboto Medium',sans-serif">43s</text><path d="M643 431v5" stroke="rgba(85,85,85,.7)" fill="none"/><text x="632" y="453" stroke-width="0" fill="#333" font-size="12.8" font-family="'Roboto Medium',sans-serif">46s</text><path d="M679 431v5" stroke="rgba(85,85,85,.7)" fill="none"/><text x="668" y="453" stroke-width="0" fill="#333" font-size="12.8" font-family="'Roboto Medium',sans-serif">48s</text><path d="M716 431v5" stroke="rgba(85,85,85,.7)" fill="none"/><text x="705" y="453" stroke-width="0" fill="#333" font-size="12.8" font-family="'Roboto Medium',sans-serif">51s</text><path d="M754 431v5" stroke="rgba(85,85,85,.7)" fill="none"/><text x="743" y="453" stroke-width="0" fill="#333" font-size="12.8" font-family="'Roboto Medium',sans-serif">54s</text><path d="M791 431v5" stroke="rgba(85,85,85,.7)" fill="none"/><text x="780" y="453" stroke-width="0" fill="#333" font-size="12.8" font-family="'Roboto Medium',sans-serif">56s</text><path d="M828 431v5" stroke="rgba(85,85,85,.7)" fill="none"/><text x="817" y="453" stroke-width="0" fill="#333" font-size="12.8" font-family="'Roboto Medium',sans-serif">59s</text><path d="M865 431v5" stroke="rgba(85,85,85,.7)" fill="none"/><text x="849" y="453" stroke-width="0" fill="#333" font-size="12.8" font-family="'Roboto Medium',sans-serif">1m2s</text><path d="M901 431v5" stroke="rgba(85,85,85,.7)" fill="none"/><text x="885" y="453" stroke-width="0" fill="#333" font-size="12.8" font-family="'Roboto Medium',sans-serif">1m4s</text><path d="M939 431v5" stroke="rgba(85,85,85,.7)" fill="none"/><text x="923" y="453" stroke-width="0" fill="#333" font-size="12.8" font-family="'Roboto Medium',sans-serif">1m7s</text><path d="M976 431v5" stroke="rgba(85,85,85,.7)" fill="none"/><text x="956" y="453" stroke-width="0" fill="#333" font-size="12.8" font-family="'Roboto Medium',sans-serif">1m10s</text><path d="M1013 431v5" stroke="rgba(85,85,85,.7)" fill="none"/><text x="993" y="453" stroke-width="0" fill="#333" font-size="12.8" font-family="'Roboto Medium',sans-serif">1m13s</text><path d="M1050 431v5" stroke="rgba(85,85,85,.7)" fill="none"/><text x="1030" y="453" stroke-width="0" fill="#333" font-size="12.8" font-family="'Roboto Medium',sans-serif">1m15s</text><path d="M1088 431v5" stroke="rgba(85,85,85,.7)" fill="none"/><text x="1068" y="453" stroke-width="0" fill="#333" font-size="12.8" font-family="'Roboto Medium',sans-serif">1m18s</text><path d="M1123 431v5" stroke="rgba(85,85,85,.7)" fill="none"/><text x="1103" y="453" stroke-width="0" fill="#333" font-size="12.8" font-family="'Roboto Medium',sans-serif">1m20s</text><text x="553" y="475" stroke-width="0" fill="#333" font-size="12.8" font-family="'Roboto Medium',sans-serif">Time</text><path d="M50 431V11m37 420V11m37 420V11m38 420V11m37 420V11m36 420V11m37 420V11m37 420V11m38 420V11m37 420V11m37 420V11m36 420V11m37 420V11m37 420V11m38 420V11m37 420V11m37 420V11m36 420V11m37 420V11m38 420V11m37 420V11m37 420V11m37 420V11m36 420V11m38 420V11m37 420V11m37 420V11m37 420V11m38 420V11" stroke="rgba(0,0,0,.1)" fill="none"/><path d="M1124 431V11m0 420h5" stroke="rgba(85,85,85,.7)" fill="none"/><text x="1134" y="437" stroke-width="0" fill="#333" font-size="12.8" font-family="'Roboto Medium',sans-serif">0.00</text><path d="M1124 391h5" stroke="rgba(85,85,85,.7)" fill="none"/><text x="1134" y="397" stroke-width="0" fill="#333" font-size="12.8" font-family="'Roboto Medium',sans-serif">20.00</text><path d="M1124 353h5" stroke="rgba(85,85,85,.7)" fill="none"/><text x="1134" y="359" stroke-width="0" fill="#333" font-size="12.8" font-family="'Roboto Medium',sans-serif">39.00</text><path d="M1124 314h5" stroke="rgba(85,85,85,.7)" fill="none"/><text x="1134" y="320" stroke-width="0" fill="#333" font-size="12.8" font-family="'Roboto Medium',sans-serif">58.00</text><path d="M1124 277h5" stroke="rgba(85,85,85,.7)" fill="none"/><text x="1134" y="283" stroke-width="0" fill="#333" font-size="12.8" font-family="'Roboto Medium',sans-serif">77.00</text><path d="M1124 239h5" stroke="rgba(85,85,85,.7)" fill="none"/><text x="1134" y="245" stroke-width="0" fill="#333" font-size="12.8" font-family="'Roboto Medium',sans-serif">96.00</text><path d="M1124 200h5" stroke="rgba(85,85,85,.7)" fill="none"/><text x="1134" y="206" stroke-width="0" fill="#333" font-size="12.8" font-family="'Roboto Medium',sans-serif">115.00</text><path d="M1124 163h5" stroke="rgba(85,85,85,.7)" fill="none"/><text x="1134" y="169" stroke-width="0" fill="#333" font-size="12.8" font-family="'Roboto Medium',sans-serif">134.00</text><path d="M1124 125h5" stroke="rgba(85,85,85,.7)" fill="none"/><text x="1134" y="131" stroke-width="0" fill="#333" font-size="12.8" font-family="'Roboto Medium',sans-serif">153.00</text><path d="M1124 87h5" stroke="rgba(85,85,85,.7)" fill="none"/><text x="1134" y="93" stroke-width="0" fill="#333" font-size="12.8" font-family="'Roboto Medium',sans-serif">172.00</text><path d="M1124 49h5" stroke="rgba(85,85,85,.7)" fill="none"/><text x="1134" y="55" stroke-width="0" fill="#333" font-size="12.8" font-family="'Roboto Medium',sans-serif">191.00</text><path d="M1124 11h5" stroke="rgba(85,85,85,.7)" fill="none"/><text x="1134" y="17" stroke-width="0" fill="#333" font-size="12.8" font-family="'Roboto Medium',sans-serif">210.00</text><text x="1184" y="209" transform="rotate(90 1184 209)" stroke-width="0" fill="#333" font-size="12.8" font-family="'Roboto Medium',sans-serif">RPS</text><path d="M12 391h1111M12 353h1111M12 314h1111M12 277h1111M12 239h1111M12 200h1111M12 163h1111M12 125h1111M12 87h1111M12 49h1111" stroke="rgba(0,0,0,.1)" fill="none"/><path d="M12 431h42L68 29l14 8 13 2 14 2 14 6 14 4 14 4 13 6h14l14 6 14 6h14l13 8 14 2 14 4 14 2 14 6 13 4 14 6 14 2 14 4 14 4 13 4 14 4 14 4 14 4 14 4 13 4 14 4 14 4 14 4 14 4 13 4 14 4 14 4 14 4 14 4 13 4 14 4 14 3 14 5 14 4 13 3 14 5 14 4 14 4 14 4 13 4 14 4 14 4 14 4h317l14 100 7 100h27H12" fill="transparent"/><path d="M12 431h42L68 29l14 8 13 2 14 2 14 6 14 4 14 4 13 6h14l14 6 14 6h14l13 8 14 2 14 4 14 2 14 6 13 4 14 6 14 2 14 4 14 4 13 4 14 4 14 4 14 4 14 4 13 4 14 4 14 4 14 4 14 4 13 4 14 4 14 4 14 4 14 4 13 4 14 4 14 3 14 5 14 4 13 3 14 5 14 4 14 4 14 4 13 4 14 4 14 4 14 4h317l14 100 7 100h27" stroke="#0074d9" fill="none"/><path d="M12 11h171v20H12V11" stroke="#333" fill="#fff"/><text x="17" y="26" stroke-width="0" fill="#333" font-size="10.2" font-family="'Roboto Medium',sans-serif">const_c_line_down_rps_aggr</text><path d="M153 21h20" stroke="#0074d9" fill="none"/></svg>