<svg xmlns="http://www.w3.org/2000/svg" width="1200" height="480">\n<path d="M0 0h1200v480H0V0" fill="#fff"/><path d="M12 11h1111v420H12V11" fill="#fff"/><path d="M12 431h1111M12 431v5" stroke="rgba(85,85,85,.7)" fill="none"/><text x="5" y="453" stroke-width="0" fill="#333" font-size="12.8" font-family="'Roboto Medium',sans-serif">0s</text><path d="M50 431v5" stroke="rgba(85,85,85,.7)" fill="none"/><text x="43" y="453" stroke-width="0" fill="#333" font-size="12.8" font-family="'Roboto Medium',sans-serif">3s</text><path d="M87 431v5" stroke="rgba(85,85,85,.7)" fill="none"/><text x="80" y="453" stroke-width="0" fill="#333" font-size="12.8" font-family="'Roboto Medium',sans-serif">6s</text><path d="M124 431v5" stroke="rgba(85,85,85,.7)" fill="none"/><text x="117" y="453" stroke-width="0" fill="#333" font-size="12.8" font-family="'Roboto Medium',sans-serif">9s</text><path d="M161 431v5" stroke="rgba(85,85,85,.7)" fill="none"/><text x="150" y="453" stroke-width="0" fill="#333" font-size="12.8" font-family="'Roboto Medium',sans-serif">12s</text><path d="M198 431v5" stroke="rgba(85,85,85,.7)" fill="none"/><text x="187" y="453" stroke-width="0" fill="#333" font-size="12.8" font-family="'Roboto Medium',sans-serif">15s</text><path d="M235 431v5" stroke="rgba(85,85,85,.7)" fill="none"/><text x="224" y="453" stroke-width="0" fill="#333" font-size="12.8" font-family="'Roboto Medium',sans-serif">18s</text><path d="M273 431v5" stroke="rgba(85,85,85,.7)" fill="none"/><text x="262" y="453" stroke-width="0" fill="#333" font-size="12.8" font-family="'Roboto Medium',sans-serif">21s</text><path d="M309 431v5" stroke="rgba(85,85,85,.7)" fill="none"/><text x="298" y="453" stroke-width="0" fill="#333" font-size="12.8" font-family="'Roboto Medium',sans-serif">24s</text><path d="M346 431v5" stroke="rgba(85,85,85,.7)" fill="none"/><text x="335" y="453" stroke-width="0" fill="#333" font-size="12.8" font-family="'Roboto Medium',sans-serif">27s</text><path d="M384 431v5" stroke="rgba(85,85,85,.7)" fill="none"/><text x="373" y="453" stroke-width="0" fill="#333" font-size="12.8" font-family="'Roboto Medium',sans-serif">30s</text><path d="M420 431v5" stroke="rgba(85,85,85,.7)" fill="none"/><text x="409" y="453" stroke-width="0" fill="#333" font-size="12.8" font-family="'Roboto Medium',sans-serif">33s</text><path d="M457 431v5" stroke="rgba(85,85,85,.7)" fill="none"/><text x="446" y="453" stroke-width="0" fill="#333" font-size="12.8" font-family="'Roboto Medium',sans-serif">36s</text><path d="M495 431v5" stroke="rgba(85,85,85,.7)" fill="none"/><text x="484" y="453" stroke-width="0" fill="#333" font-size="12.8" font-family="'Roboto Medium',sans-serif">39s</text><path d="M531 431v5" stroke="rgba(85,85,85,.7)" fill="none"/><text x="520" y="453" stroke-width="0" fill="#333" font-size="12.8" font-family="'Roboto Medium',sans-serif">42s</text><path d="M568 431v5" stroke="rgba(85,85,85,.7)" fill="none"/><text x="557" y="453" stroke-width="0" fill="#333" font-size="12.8" font-family="'Roboto Medium',sans-serif">45s</text><path d="M606 431v5" stroke="rgba(85,85,85,.7)" fill="none"/><text x="595" y="453" stroke-width="0" fill="#333" font-size="12.8" font-family="'Roboto Medium',sans-serif">49s</text><path d="M643 431v5" stroke="rgba(85,85,85,.7)" fill="none"/><text x="632" y="453" stroke-width="0" fill="#333" font-size="12.8" font-family="'Roboto Medium',sans-serif">52s</text><path d="M679 431v5" stroke="rgba(85,85,85,.7)" fill="none"/><text x="668" y="453" stroke-width="0" fill="#333" font-size="12.8" font-family="'Roboto Medium',sans-serif">55s</text><path d="M717 431v5" stroke="rgba(85,85,85,.7)" fill="none"/><text x="706" y="453" stroke-width="0" fill="#333" font-size="12.8" font-family="'Roboto Medium',sans-serif">58s</text><path d="M754 431v5" stroke="rgba(85,85,85,.7)" fill="none"/><text x="738" y="453" stroke-width="0" fill="#333" font-size="12.8" font-family="'Roboto Medium',sans-serif">1m1s</text><path d="M790 431v5" stroke="rgba(85,85,85,.7)" fill="none"/><text x="774" y="453" stroke-width="0" fill="#333" font-size="12.8" font-family="'Roboto Medium',sans-serif">1m4s</text><path d="M828 431v5" stroke="rgba(85,85,85,.7)" fill="none"/><text x="812" y="453" stroke-width="0" fill="#333" font-size="12.8" font-family="'Roboto Medium',sans-serif">1m7s</text><path d="M865 431v5" stroke="rgba(85,85,85,.7)" fill="none"/><text x="845" y="453" stroke-width="0" fill="#333" font-size="12.8" font-family="'Roboto Medium',sans-serif">1m10s</text><path d="M902 431v5" stroke="rgba(85,85,85,.7)" fill="none"/><text x="882" y="453" stroke-width="0" fill="#333" font-size="12.8" font-family="'Roboto Medium',sans-serif">1m13s</text><path d="M939 431v5" stroke="rgba(85,85,85,.7)" fill="none"/><text x="919" y="453" stroke-width="0" fill="#333" font-size="12.8" font-family="'Roboto Medium',sans-serif">1m16s</text><path d="M976 431v5" stroke="rgba(85,85,85,.7)" fill="none"/><text x="956" y="453" stroke-width="0" fill="#333" font-size="12.8" font-family="'Roboto Medium',sans-serif">1m19s</text><path d="M1013 431v5" stroke="rgba(85,85,85,.7)" fill="none"/><text x="993" y="453" stroke-width="0" fill="#333" font-size="12.8" font-family="'Roboto Medium',sans-serif">1m22s</text><path d="M1050 431v5" stroke="rgba(85,85,85,.7)" fill="none"/><text x="1030" y="453" stroke-width="0" fill="#333" font-size="12.8" font-family="'Roboto Medium',sans-serif">1m25s</text><path d="M1087 431v5" stroke="rgba(85,85,85,.7)" fill="none"/><text x="1067" y="453" stroke-width="0" fill="#333" font-size="12.8" font-family="'Roboto Medium',sans-serif">1m28s</text><path d="M1123 431v5" stroke="rgba(85,85,85,.7)" fill="none"/><text x="1103" y="453" stroke-width="0" fill="#333" font-size="12.8" font-family="'Roboto Medium',sans-serif">1m31s</text><text x="553" y="475" stroke-width="0" fill="#333" font-size="12.8" font-family="'Roboto Medium',sans-serif">Time</text><path d="M50 431V11m37 420V11m37 420V11m37 420V11m37 420V11m37 420V11m38 420V11m36 420V11m37 420V11m38 420V11m36 420V11m37 420V11m38 420V11m36 420V11m37 420V11m38 420V11m37 420V11m36 420V11m38 420V11m37 420V11m36 420V11m38 420V11m37 420V11m37 420V11m37 420V11m37 420V11m37 420V11m37 420V11m37 420V11" stroke="rgba(0,0,0,.1)" fill="none"/><path d="M1124 431V11m0 420h5" stroke="rgba(85,85,85,.7)" fill="none"/><text x="1134" y="437" stroke-width="0" fill="#333" font-size="12.8" font-family="'Roboto Medium',sans-serif">0.00</text><path d="M1124 391h5" stroke="rgba(85,85,85,.7)" fill="none"/><text x="1134" y="397" stroke-width="0" fill="#333" font-size="12.8" font-family="'Roboto Medium',sans-serif">14.00</text><path d="M1124 352h5" stroke="rgba(85,85,85,.7)" fill="none"/><text x="1134" y="358" stroke-width="0" fill="#333" font-size="12.8" font-family="'Roboto Medium',sans-serif">28.00</text><path d="M1124 316h5" stroke="rgba(85,85,85,.7)" fill="none"/><text x="1134" y="322" stroke-width="0" fill="#333" font-size="12.8" font-family="'Roboto Medium',sans-serif">41.00</text><path d="M1124 277h5" stroke="rgba(85,85,85,.7)" fill="none"/><text x="1134" y="283" stroke-width="0" fill="#333" font-size="12.8" font-family="'Roboto Medium',sans-serif">55.00</text><path d="M1124 237h5" stroke="rgba(85,85,85,.7)" fill="none"/><text x="1134" y="243" stroke-width="0" fill="#333" font-size="12.8" font-family="'Roboto Medium',sans-serif">69.00</text><path d="M1124 201h5" stroke="rgba(85,85,85,.7)" fill="none"/><text x="1134" y="207" stroke-width="0" fill="#333" font-size="12.8" font-family="'Roboto Medium',sans-serif">82.00</text><path d="M1124 162h5" stroke="rgba(85,85,85,.7)" fill="none"/><text x="1134" y="168" stroke-width="0" fill="#333" font-size="12.8" font-family="'Roboto Medium',sans-serif">96.00</text><path d="M1124 123h5" stroke="rgba(85,85,85,.7)" fill="none"/><text x="1134" y="129" stroke-width="0" fill="#333" font-size="12.8" font-family="'Roboto Medium',sans-serif">110.00</text><path d="M1124 86h5" stroke="rgba(85,85,85,.7)" fill="none"/><text x="1134" y="92" stroke-width="0" fill="#333" font-size="12.8" font-family="'Roboto Medium',sans-serif">123.00</text><path d="M1124 47h5" stroke="rgba(85,85,85,.7)" fill="none"/><text x="1134" y="53" stroke-width="0" fill="#333" font-size="12.8" font-family="'Roboto Medium',sans-serif">137.00</text><path d="M1124 11h5" stroke="rgba(85,85,85,.7)" fill="none"/><text x="1134" y="17" stroke-width="0" fill="#333" font-size="12.8" font-family="'Roboto Medium',sans-serif">150.00</text><text x="1184" y="209" transform="rotate(90 1184 209)" stroke-width="0" fill="#333" font-size="12.8" font-family="'Roboto Medium',sans-serif">RPS</text><path d="M12 391h1111M12 352h1111M12 316h1111M12 277h1111M12 237h1111M12 201h1111M12 162h1111M12 123h1111M12 86h1111M12 47h1111" stroke="rgba(0,0,0,.1)" fill="none"/><path d="M12 431h37l12-140 13-3 12 3 12 2 12-5 12-25h49l12-28h49l13-28h48l13-28h36l12-3 13-25h48l13-28h49l12-28h49l12-28h36l13-3 12-23 12-2h25l12-3 12-25h403l12 8 12 412h24H12" fill="transparent"/><path d="M12 431h37l12-140 13-3 12 3 12 2 12-5 12-25h49l12-28h49l13-28h48l13-28h36l12-3 13-25h48l13-28h49l12-28h49l12-28h36l13-3 12-23 12-2h25l12-3 12-25h403l12 8 12 412h24" stroke="#0074d9" fill="none"/><path d="M12 11h161v20H12V11" stroke="#333" fill="#fff"/><text x="17" y="26" stroke-width="0" fill="#333" font-size="10.2" font-family="'Roboto Medium',sans-serif">const_c_step_up_rps_aggr</text><path d="M143 21h20" stroke="#0074d9" fill="none"/></svg>