<svg xmlns="http://www.w3.org/2000/svg" width="1200" height="480">\n<path d="M0 0h1200v480H0V0" fill="#fff"/><path d="M12 11h1111v420H12V11" fill="#fff"/><path d="M12 431h1111M12 431v5" stroke="rgba(85,85,85,.7)" fill="none"/><text x="5" y="453" stroke-width="0" fill="#333" font-size="12.8" font-family="'Roboto Medium',sans-serif">0s</text><path d="M50 431v5" stroke="rgba(85,85,85,.7)" fill="none"/><text x="43" y="453" stroke-width="0" fill="#333" font-size="12.8" font-family="'Roboto Medium',sans-serif">2s</text><path d="M87 431v5" stroke="rgba(85,85,85,.7)" fill="none"/><text x="80" y="453" stroke-width="0" fill="#333" font-size="12.8" font-family="'Roboto Medium',sans-serif">5s</text><path d="M125 431v5" stroke="rgba(85,85,85,.7)" fill="none"/><text x="118" y="453" stroke-width="0" fill="#333" font-size="12.8" font-family="'Roboto Medium',sans-serif">7s</text><path d="M162 431v5" stroke="rgba(85,85,85,.7)" fill="none"/><text x="151" y="453" stroke-width="0" fill="#333" font-size="12.8" font-family="'Roboto Medium',sans-serif">10s</text><path d="M198 431v5" stroke="rgba(85,85,85,.7)" fill="none"/><text x="187" y="453" stroke-width="0" fill="#333" font-size="12.8" font-family="'Roboto Medium',sans-serif">12s</text><path d="M235 431v5" stroke="rgba(85,85,85,.7)" fill="none"/><text x="224" y="453" stroke-width="0" fill="#333" font-size="12.8" font-family="'Roboto Medium',sans-serif">15s</text><path d="M273 431v5" stroke="rgba(85,85,85,.7)" fill="none"/><text x="262" y="453" stroke-width="0" fill="#333" font-size="12.8" font-family="'Roboto Medium',sans-serif">17s</text><path d="M310 431v5" stroke="rgba(85,85,85,.7)" fill="none"/><text x="299" y="453" stroke-width="0" fill="#333" font-size="12.8" font-family="'Roboto Medium',sans-serif">20s</text><path d="M346 431v5" stroke="rgba(85,85,85,.7)" fill="none"/><text x="335" y="453" stroke-width="0" fill="#333" font-size="12.8" font-family="'Roboto Medium',sans-serif">22s</text><path d="M383 431v5" stroke="rgba(85,85,85,.7)" fill="none"/><text x="372" y="453" stroke-width="0" fill="#333" font-size="12.8" font-family="'Roboto Medium',sans-serif">25s</text><path d="M421 431v5" stroke="rgba(85,85,85,.7)" fill="none"/><text x="410" y="453" stroke-width="0" fill="#333" font-size="12.8" font-family="'Roboto Medium',sans-serif">27s</text><path d="M458 431v5" stroke="rgba(85,85,85,.7)" fill="none"/><text x="447" y="453" stroke-width="0" fill="#333" font-size="12.8" font-family="'Roboto Medium',sans-serif">30s</text><path d="M495 431v5" stroke="rgba(85,85,85,.7)" fill="none"/><text x="484" y="453" stroke-width="0" fill="#333" font-size="12.8" font-family="'Roboto Medium',sans-serif">32s</text><path d="M531 431v5" stroke="rgba(85,85,85,.7)" fill="none"/><text x="520" y="453" stroke-width="0" fill="#333" font-size="12.8" font-family="'Roboto Medium',sans-serif">35s</text><path d="M569 431v5" stroke="rgba(85,85,85,.7)" fill="none"/><text x="558" y="453" stroke-width="0" fill="#333" font-size="12.8" font-family="'Roboto Medium',sans-serif">37s</text><path d="M606 431v5" stroke="rgba(85,85,85,.7)" fill="none"/><text x="595" y="453" stroke-width="0" fill="#333" font-size="12.8" font-family="'Roboto Medium',sans-serif">40s</text><path d="M643 431v5" stroke="rgba(85,85,85,.7)" fill="none"/><text x="632" y="453" stroke-width="0" fill="#333" font-size="12.8" font-family="'Roboto Medium',sans-serif">42s</text><path d="M679 431v5" stroke="rgba(85,85,85,.7)" fill="none"/><text x="668" y="453" stroke-width="0" fill="#333" font-size="12.8" font-family="'Roboto Medium',sans-serif">45s</text><path d="M717 431v5" stroke="rgba(85,85,85,.7)" fill="none"/><text x="706" y="453" stroke-width="0" fill="#333" font-size="12.8" font-family="'Roboto Medium',sans-serif">47s</text><path d="M754 431v5" stroke="rgba(85,85,85,.7)" fill="none"/><text x="743" y="453" stroke-width="0" fill="#333" font-size="12.8" font-family="'Roboto Medium',sans-serif">50s</text><path d="M791 431v5" stroke="rgba(85,85,85,.7)" fill="none"/><text x="780" y="453" stroke-width="0" fill="#333" font-size="12.8" font-family="'Roboto Medium',sans-serif">52s</text><path d="M829 431v5" stroke="rgba(85,85,85,.7)" fill="none"/><text x="818" y="453" stroke-width="0" fill="#333" font-size="12.8" font-family="'Roboto Medium',sans-serif">55s</text><path d="M864 431v5" stroke="rgba(85,85,85,.7)" fill="none"/><text x="853" y="453" stroke-width="0" fill="#333" font-size="12.8" font-family="'Roboto Medium',sans-serif">57s</text><path d="M902 431v5" stroke="rgba(85,85,85,.7)" fill="none"/><text x="891" y="453" stroke-width="0" fill="#333" font-size="12.8" font-family="'Roboto Medium',sans-serif">59s</text><path d="M939 431v5" stroke="rgba(85,85,85,.7)" fill="none"/><text x="923" y="453" stroke-width="0" fill="#333" font-size="12.8" font-family="'Roboto Medium',sans-serif">1m2s</text><path d="M977 431v5" stroke="rgba(85,85,85,.7)" fill="none"/><text x="961" y="453" stroke-width="0" fill="#333" font-size="12.8" font-family="'Roboto Medium',sans-serif">1m4s</text><path d="M1012 431v5" stroke="rgba(85,85,85,.7)" fill="none"/><text x="996" y="453" stroke-width="0" fill="#333" font-size="12.8" font-family="'Roboto Medium',sans-serif">1m7s</text><path d="M1050 431v5" stroke="rgba(85,85,85,.7)" fill="none"/><text x="1034" y="453" stroke-width="0" fill="#333" font-size="12.8" font-family="'Roboto Medium',sans-serif">1m9s</text><path d="M1087 431v5" stroke="rgba(85,85,85,.7)" fill="none"/><text x="1067" y="453" stroke-width="0" fill="#333" font-size="12.8" font-family="'Roboto Medium',sans-serif">1m12s</text><path d="M1123 431v5" stroke="rgba(85,85,85,.7)" fill="none"/><text x="1103" y="453" stroke-width="0" fill="#333" font-size="12.8" font-family="'Roboto Medium',sans-serif">1m14s</text><text x="553" y="475" stroke-width="0" fill="#333" font-size="12.8" font-family="'Roboto Medium',sans-serif">Time</text><path d="M50 431V11m37 420V11m38 420V11m37 420V11m36 420V11m37 420V11m38 420V11m37 420V11m36 420V11m37 420V11m38 420V11m37 420V11m37 420V11m36 420V11m38 420V11m37 420V11m37 420V11m36 420V11m38 420V11m37 420V11m37 420V11m38 420V11m35 420V11m38 420V11m37 420V11m38 420V11m35 420V11m38 420V11m37 420V11" stroke="rgba(0,0,0,.1)" fill="none"/><path d="M1124 431V11m0 420h5" stroke="rgba(85,85,85,.7)" fill="none"/><text x="1134" y="437" stroke-width="0" fill="#333" font-size="12.8" font-family="'Roboto Medium',sans-serif">0.00</text><path d="M1124 391h5" stroke="rgba(85,85,85,.7)" fill="none"/><text x="1134" y="397" stroke-width="0" fill="#333" font-size="12.8" font-family="'Roboto Medium',sans-serif">20.00</text><path d="M1124 353h5" stroke="rgba(85,85,85,.7)" fill="none"/><text x="1134" y="359" stroke-width="0" fill="#333" font-size="12.8" font-family="'Roboto Medium',sans-serif">39.00</text><path d="M1124 314h5" stroke="rgba(85,85,85,.7)" fill="none"/><text x="1134" y="320" stroke-width="0" fill="#333" font-size="12.8" font-family="'Roboto Medium',sans-serif">58.00</text><path d="M1124 277h5" stroke="rgba(85,85,85,.7)" fill="none"/><text x="1134" y="283" stroke-width="0" fill="#333" font-size="12.8" font-family="'Roboto Medium',sans-serif">77.00</text><path d="M1124 239h5" stroke="rgba(85,85,85,.7)" fill="none"/><text x="1134" y="245" stroke-width="0" fill="#333" font-size="12.8" font-family="'Roboto Medium',sans-serif">96.00</text><path d="M1124 200h5" stroke="rgba(85,85,85,.7)" fill="none"/><text x="1134" y="206" stroke-width="0" fill="#333" font-size="12.8" font-family="'Roboto Medium',sans-serif">115.00</text><path d="M1124 163h5" stroke="rgba(85,85,85,.7)" fill="none"/><text x="1134" y="169" stroke-width="0" fill="#333" font-size="12.8" font-family="'Roboto Medium',sans-serif">134.00</text><path d="M1124 125h5" stroke="rgba(85,85,85,.7)" fill="none"/><text x="1134" y="131" stroke-width="0" fill="#333" font-size="12.8" font-family="'Roboto Medium',sans-serif">153.00</text><path d="M1124 87h5" stroke="rgba(85,85,85,.7)" fill="none"/><text x="1134" y="93" stroke-width="0" fill="#333" font-size="12.8" font-family="'Roboto Medium',sans-serif">172.00</text><path d="M1124 49h5" stroke="rgba(85,85,85,.7)" fill="none"/><text x="1134" y="55" stroke-width="0" fill="#333" font-size="12.8" font-family="'Roboto Medium',sans-serif">191.00</text><path d="M1124 11h5" stroke="rgba(85,85,85,.7)" fill="none"/><text x="1134" y="17" stroke-width="0" fill="#333" font-size="12.8" font-family="'Roboto Medium',sans-serif">210.00</text><text x="1184" y="209" transform="rotate(90 1184 209)" stroke-width="0" fill="#333" font-size="12.8" font-family="'Roboto Medium',sans-serif">RPS</text><path d="M12 391h1111M12 353h1111M12 314h1111M12 277h1111M12 239h1111M12 200h1111M12 163h1111M12 125h1111M12 87h1111M12 49h1111" stroke="rgba(0,0,0,.1)" fill="none"/><path d="M12 431h45L72 29l15 4 15-4 15 2 15 2 15 18h45l15-2 15 22 15 2 15-2h30l14 20h60l15 20h60l15 20h60l15 20h59l15 20h60l15 20h404l15 160 5 80h29H12" fill="transparent"/><path d="M12 431h45L72 29l15 4 15-4 15 2 15 2 15 18h45l15-2 15 22 15 2 15-2h30l14 20h60l15 20h60l15 20h60l15 20h59l15 20h60l15 20h404l15 160 5 80h29" stroke="#0074d9" fill="none"/><path d="M12 11h175v20H12V11" stroke="#333" fill="#fff"/><text x="17" y="26" stroke-width="0" fill="#333" font-size="10.2" font-family="'Roboto Medium',sans-serif">const_c_step_down_rps_aggr</text><path d="M157 21h20" stroke="#0074d9" fill="none"/></svg>