<svg xmlns="http://www.w3.org/2000/svg" width="1200" height="480">\n<path d="M0 0h1200v480H0V0" fill="#fff"/><path d="M12 11h1111v420H12V11" fill="#fff"/><path d="M12 431h1111M12 431v5" stroke="rgba(85,85,85,.7)" fill="none"/><text x="5" y="453" stroke-width="0" fill="#333" font-size="12.8" font-family="'Roboto Medium',sans-serif">0s</text><path d="M50 431v5" stroke="rgba(85,85,85,.7)" fill="none"/><text x="43" y="453" stroke-width="0" fill="#333" font-size="12.8" font-family="'Roboto Medium',sans-serif">2s</text><path d="M87 431v5" stroke="rgba(85,85,85,.7)" fill="none"/><text x="80" y="453" stroke-width="0" fill="#333" font-size="12.8" font-family="'Roboto Medium',sans-serif">5s</text><path d="M124 431v5" stroke="rgba(85,85,85,.7)" fill="none"/><text x="117" y="453" stroke-width="0" fill="#333" font-size="12.8" font-family="'Roboto Medium',sans-serif">7s</text><path d="M162 431v5" stroke="rgba(85,85,85,.7)" fill="none"/><text x="155" y="453" stroke-width="0" fill="#333" font-size="12.8" font-family="'Roboto Medium',sans-serif">9s</text><path d="M199 431v5" stroke="rgba(85,85,85,.7)" fill="none"/><text x="188" y="453" stroke-width="0" fill="#333" font-size="12.8" font-family="'Roboto Medium',sans-serif">11s</text><path d="M236 431v5" stroke="rgba(85,85,85,.7)" fill="none"/><text x="225" y="453" stroke-width="0" fill="#333" font-size="12.8" font-family="'Roboto Medium',sans-serif">14s</text><path d="M272 431v5" stroke="rgba(85,85,85,.7)" fill="none"/><text x="261" y="453" stroke-width="0" fill="#333" font-size="12.8" font-family="'Roboto Medium',sans-serif">16s</text><path d="M309 431v5" stroke="rgba(85,85,85,.7)" fill="none"/><text x="298" y="453" stroke-width="0" fill="#333" font-size="12.8" font-family="'Roboto Medium',sans-serif">18s</text><path d="M346 431v5" stroke="rgba(85,85,85,.7)" fill="none"/><text x="335" y="453" stroke-width="0" fill="#333" font-size="12.8" font-family="'Roboto Medium',sans-serif">21s</text><path d="M384 431v5" stroke="rgba(85,85,85,.7)" fill="none"/><text x="373" y="453" stroke-width="0" fill="#333" font-size="12.8" font-family="'Roboto Medium',sans-serif">23s</text><path d="M421 431v5" stroke="rgba(85,85,85,.7)" fill="none"/><text x="410" y="453" stroke-width="0" fill="#333" font-size="12.8" font-family="'Roboto Medium',sans-serif">25s</text><path d="M458 431v5" stroke="rgba(85,85,85,.7)" fill="none"/><text x="447" y="453" stroke-width="0" fill="#333" font-size="12.8" font-family="'Roboto Medium',sans-serif">27s</text><path d="M496 431v5" stroke="rgba(85,85,85,.7)" fill="none"/><text x="485" y="453" stroke-width="0" fill="#333" font-size="12.8" font-family="'Roboto Medium',sans-serif">30s</text><path d="M531 431v5" stroke="rgba(85,85,85,.7)" fill="none"/><text x="520" y="453" stroke-width="0" fill="#333" font-size="12.8" font-family="'Roboto Medium',sans-serif">32s</text><path d="M568 431v5" stroke="rgba(85,85,85,.7)" fill="none"/><text x="557" y="453" stroke-width="0" fill="#333" font-size="12.8" font-family="'Roboto Medium',sans-serif">34s</text><path d="M606 431v5" stroke="rgba(85,85,85,.7)" fill="none"/><text x="595" y="453" stroke-width="0" fill="#333" font-size="12.8" font-family="'Roboto Medium',sans-serif">37s</text><path d="M643 431v5" stroke="rgba(85,85,85,.7)" fill="none"/><text x="632" y="453" stroke-width="0" fill="#333" font-size="12.8" font-family="'Roboto Medium',sans-serif">39s</text><path d="M680 431v5" stroke="rgba(85,85,85,.7)" fill="none"/><text x="669" y="453" stroke-width="0" fill="#333" font-size="12.8" font-family="'Roboto Medium',sans-serif">41s</text><path d="M718 431v5" stroke="rgba(85,85,85,.7)" fill="none"/><text x="707" y="453" stroke-width="0" fill="#333" font-size="12.8" font-family="'Roboto Medium',sans-serif">43s</text><path d="M753 431v5" stroke="rgba(85,85,85,.7)" fill="none"/><text x="742" y="453" stroke-width="0" fill="#333" font-size="12.8" font-family="'Roboto Medium',sans-serif">46s</text><path d="M791 431v5" stroke="rgba(85,85,85,.7)" fill="none"/><text x="780" y="453" stroke-width="0" fill="#333" font-size="12.8" font-family="'Roboto Medium',sans-serif">48s</text><path d="M828 431v5" stroke="rgba(85,85,85,.7)" fill="none"/><text x="817" y="453" stroke-width="0" fill="#333" font-size="12.8" font-family="'Roboto Medium',sans-serif">50s</text><path d="M865 431v5" stroke="rgba(85,85,85,.7)" fill="none"/><text x="854" y="453" stroke-width="0" fill="#333" font-size="12.8" font-family="'Roboto Medium',sans-serif">53s</text><path d="M902 431v5" stroke="rgba(85,85,85,.7)" fill="none"/><text x="891" y="453" stroke-width="0" fill="#333" font-size="12.8" font-family="'Roboto Medium',sans-serif">55s</text><path d="M940 431v5" stroke="rgba(85,85,85,.7)" fill="none"/><text x="929" y="453" stroke-width="0" fill="#333" font-size="12.8" font-family="'Roboto Medium',sans-serif">57s</text><path d="M977 431v5" stroke="rgba(85,85,85,.7)" fill="none"/><text x="966" y="453" stroke-width="0" fill="#333" font-size="12.8" font-family="'Roboto Medium',sans-serif">59s</text><path d="M1013 431v5" stroke="rgba(85,85,85,.7)" fill="none"/><text x="997" y="453" stroke-width="0" fill="#333" font-size="12.8" font-family="'Roboto Medium',sans-serif">1m2s</text><path d="M1050 431v5" stroke="rgba(85,85,85,.7)" fill="none"/><text x="1034" y="453" stroke-width="0" fill="#333" font-size="12.8" font-family="'Roboto Medium',sans-serif">1m4s</text><path d="M1087 431v5" stroke="rgba(85,85,85,.7)" fill="none"/><text x="1071" y="453" stroke-width="0" fill="#333" font-size="12.8" font-family="'Roboto Medium',sans-serif">1m6s</text><path d="M1123 431v5" stroke="rgba(85,85,85,.7)" fill="none"/><text x="1107" y="453" stroke-width="0" fill="#333" font-size="12.8" font-family="'Roboto Medium',sans-serif">1m9s</text><text x="553" y="475" stroke-width="0" fill="#333" font-size="12.8" font-family="'Roboto Medium',sans-serif">Time</text><path d="M50 431V11m37 420V11m37 420V11m38 420V11m37 420V11m37 420V11m36 420V11m37 420V11m37 420V11m38 420V11m37 420V11m37 420V11m38 420V11m35 420V11m37 420V11m38 420V11m37 420V11m37 420V11m38 420V11m35 420V11m38 420V11m37 420V11m37 420V11m37 420V11m38 420V11m37 420V11m36 420V11m37 420V11m37 420V11" stroke="rgba(0,0,0,.1)" fill="none"/><path d="M1124 431V11m0 420h5" stroke="rgba(85,85,85,.7)" fill="none"/><text x="1134" y="437" stroke-width="0" fill="#333" font-size="12.8" font-family="'Roboto Medium',sans-serif">0.00</text><path d="M1124 391h5" stroke="rgba(85,85,85,.7)" fill="none"/><text x="1134" y="397" stroke-width="0" fill="#333" font-size="12.8" font-family="'Roboto Medium',sans-serif">30.00</text><path d="M1124 353h5" stroke="rgba(85,85,85,.7)" fill="none"/><text x="1134" y="359" stroke-width="0" fill="#333" font-size="12.8" font-family="'Roboto Medium',sans-serif">59.00</text><path d="M1124 315h5" stroke="rgba(85,85,85,.7)" fill="none"/><text x="1134" y="321" stroke-width="0" fill="#333" font-size="12.8" font-family="'Roboto Medium',sans-serif">88.00</text><path d="M1124 277h5" stroke="rgba(85,85,85,.7)" fill="none"/><text x="1134" y="283" stroke-width="0" fill="#333" font-size="12.8" font-family="'Roboto Medium',sans-serif">117.00</text><path d="M1124 239h5" stroke="rgba(85,85,85,.7)" fill="none"/><text x="1134" y="245" stroke-width="0" fill="#333" font-size="12.8" font-family="'Roboto Medium',sans-serif">146.00</text><path d="M1124 201h5" stroke="rgba(85,85,85,.7)" fill="none"/><text x="1134" y="207" stroke-width="0" fill="#333" font-size="12.8" font-family="'Roboto Medium',sans-serif">175.00</text><path d="M1124 163h5" stroke="rgba(85,85,85,.7)" fill="none"/><text x="1134" y="169" stroke-width="0" fill="#333" font-size="12.8" font-family="'Roboto Medium',sans-serif">204.00</text><path d="M1124 125h5" stroke="rgba(85,85,85,.7)" fill="none"/><text x="1134" y="131" stroke-width="0" fill="#333" font-size="12.8" font-family="'Roboto Medium',sans-serif">233.00</text><path d="M1124 87h5" stroke="rgba(85,85,85,.7)" fill="none"/><text x="1134" y="93" stroke-width="0" fill="#333" font-size="12.8" font-family="'Roboto Medium',sans-serif">262.00</text><path d="M1124 49h5" stroke="rgba(85,85,85,.7)" fill="none"/><text x="1134" y="55" stroke-width="0" fill="#333" font-size="12.8" font-family="'Roboto Medium',sans-serif">291.00</text><path d="M1124 11h5" stroke="rgba(85,85,85,.7)" fill="none"/><text x="1134" y="17" stroke-width="0" fill="#333" font-size="12.8" font-family="'Roboto Medium',sans-serif">320.00</text><text x="1184" y="209" transform="rotate(90 1184 209)" stroke-width="0" fill="#333" font-size="12.8" font-family="'Roboto Medium',sans-serif">RPS</text><path d="M12 391h1111M12 353h1111M12 315h1111M12 277h1111M12 239h1111M12 201h1111M12 163h1111M12 125h1111M12 87h1111M12 49h1111" stroke="rgba(0,0,0,.1)" fill="none"/><path d="M12 431h49l16-10 17-5 16-6 16-6 16-9 16-5 17-7 16-6 16-7 16-6 16-7 17-7 16-6 16-7 16-6 16-7 17-6 16-7 16-6 16-7 17-7 16-6 16-7 16-6 16-7 17-6 16-7 16-7 16-7 16-6 17-6 16-7 16-6 16-7 16-7 17-6 16-7 16-6 16-7 17-6 16-7 16-6 16-7 16-7 17-6 16-7 16-6 16-7 16-6 17-7 16-8 16-5 16-5 16-9 17-6 16-6 16-7 16-6 17-7 16-7 16-6 16-7 16 185 9 224h32H12" fill="transparent"/><path d="M12 431h49l16-10 17-5 16-6 16-6 16-9 16-5 17-7 16-6 16-7 16-6 16-7 17-7 16-6 16-7 16-6 16-7 17-6 16-7 16-6 16-7 17-7 16-6 16-7 16-6 16-7 17-6 16-7 16-7 16-7 16-6 17-6 16-7 16-6 16-7 16-7 17-6 16-7 16-6 16-7 17-6 16-7 16-6 16-7 16-7 17-6 16-7 16-6 16-7 16-6 17-7 16-8 16-5 16-5 16-9 17-6 16-6 16-7 16-6 17-7 16-7 16-6 16-7 16 185 9 224h32" stroke="#0074d9" fill="none"/><path d="M12 11h158v20H12V11" stroke="#333" fill="#fff"/><text x="17" y="26" stroke-width="0" fill="#333" font-size="10.2" font-family="'Roboto Medium',sans-serif">const_c_line_up_rps_aggr</text><path d="M140 21h20" stroke="#0074d9" fill="none"/></svg>