<svg xmlns="http://www.w3.org/2000/svg" width="1200" height="480">\n<path d="M0 0h1200v480H0V0" fill="#fff"/><path d="M58 11h1072v420H58V11" fill="#fff"/><path d="M58 431h1072M58 431v5" stroke="rgba(85,85,85,.7)" fill="none"/><text x="5" y="453" stroke-width="0" fill="#333" font-size="12.8" font-family="'Roboto Medium',sans-serif">10-25 11:23:34AM</text><path d="M238 431v5" stroke="rgba(85,85,85,.7)" fill="none"/><text x="185" y="453" stroke-width="0" fill="#333" font-size="12.8" font-family="'Roboto Medium',sans-serif">10-25 11:23:43AM</text><path d="M417 431v5" stroke="rgba(85,85,85,.7)" fill="none"/><text x="364" y="453" stroke-width="0" fill="#333" font-size="12.8" font-family="'Roboto Medium',sans-serif">10-25 11:23:52AM</text><path d="M597 431v5" stroke="rgba(85,85,85,.7)" fill="none"/><text x="544" y="453" stroke-width="0" fill="#333" font-size="12.8" font-family="'Roboto Medium',sans-serif">10-25 11:24:01AM</text><path d="M774 431v5" stroke="rgba(85,85,85,.7)" fill="none"/><text x="721" y="453" stroke-width="0" fill="#333" font-size="12.8" font-family="'Roboto Medium',sans-serif">10-25 11:24:09AM</text><path d="M953 431v5" stroke="rgba(85,85,85,.7)" fill="none"/><text x="900" y="453" stroke-width="0" fill="#333" font-size="12.8" font-family="'Roboto Medium',sans-serif">10-25 11:24:18AM</text><path d="M1130 431v5" stroke="rgba(85,85,85,.7)" fill="none"/><text x="1077" y="453" stroke-width="0" fill="#333" font-size="12.8" font-family="'Roboto Medium',sans-serif">10-25 11:24:26AM</text><text x="579" y="475" stroke-width="0" fill="#333" font-size="12.8" font-family="'Roboto Medium',sans-serif">Time</text><path d="M238 431V11m179 420V11m180 420V11m177 420V11m179 420V11" stroke="rgba(0,0,0,.1)" fill="none"/><path d="M1131 431V11m0 420h5" stroke="rgba(85,85,85,.7)" fill="none"/><text x="1141" y="437" stroke-width="0" fill="#333" font-size="12.8" font-family="'Roboto Medium',sans-serif">0.00</text><path d="M1131 392h5" stroke="rgba(85,85,85,.7)" fill="none"/><text x="1141" y="398" stroke-width="0" fill="#333" font-size="12.8" font-family="'Roboto Medium',sans-serif">4.60</text><path d="M1131 354h5" stroke="rgba(85,85,85,.7)" fill="none"/><text x="1141" y="360" stroke-width="0" fill="#333" font-size="12.8" font-family="'Roboto Medium',sans-serif">9.10</text><path d="M1131 315h5" stroke="rgba(85,85,85,.7)" fill="none"/><text x="1141" y="321" stroke-width="0" fill="#333" font-size="12.8" font-family="'Roboto Medium',sans-serif">13.70</text><path d="M1131 278h5" stroke="rgba(85,85,85,.7)" fill="none"/><text x="1141" y="284" stroke-width="0" fill="#333" font-size="12.8" font-family="'Roboto Medium',sans-serif">18.20</text><path d="M1131 239h5" stroke="rgba(85,85,85,.7)" fill="none"/><text x="1141" y="245" stroke-width="0" fill="#333" font-size="12.8" font-family="'Roboto Medium',sans-serif">22.80</text><path d="M1131 201h5" stroke="rgba(85,85,85,.7)" fill="none"/><text x="1141" y="207" stroke-width="0" fill="#333" font-size="12.8" font-family="'Roboto Medium',sans-serif">27.30</text><path d="M1131 163h5" stroke="rgba(85,85,85,.7)" fill="none"/><text x="1141" y="169" stroke-width="0" fill="#333" font-size="12.8" font-family="'Roboto Medium',sans-serif">31.90</text><path d="M1131 125h5" stroke="rgba(85,85,85,.7)" fill="none"/><text x="1141" y="131" stroke-width="0" fill="#333" font-size="12.8" font-family="'Roboto Medium',sans-serif">36.40</text><path d="M1131 86h5" stroke="rgba(85,85,85,.7)" fill="none"/><text x="1141" y="92" stroke-width="0" fill="#333" font-size="12.8" font-family="'Roboto Medium',sans-serif">41.00</text><path d="M1131 48h5" stroke="rgba(85,85,85,.7)" fill="none"/><text x="1141" y="54" stroke-width="0" fill="#333" font-size="12.8" font-family="'Roboto Medium',sans-serif">45.50</text><path d="M1131 11h5" stroke="rgba(85,85,85,.7)" fill="none"/><text x="1141" y="17" stroke-width="0" fill="#333" font-size="12.8" font-family="'Roboto Medium',sans-serif">50.00</text><text x="1184" y="161" transform="rotate(90 1184 161)" stroke-width="0" fill="#333" font-size="12.8" font-family="'Roboto Medium',sans-serif">step_up_c_const_rps</text><path d="M58 392h1072M58 354h1072M58 315h1072M58 278h1072M58 239h1072M58 201h1072M58 163h1072M58 125h1072M58 86h1072M58 48h1072" stroke="rgba(0,0,0,.1)" fill="none"/><path d="M58 431l21-42h83l20-42h83l20-42h83l20-42h83l20-26 21-16h82l21-42h83l20-42h83l20-42h83l20-42h83l20-42h83l20 420" stroke="#0074d9" fill="none"/></svg>