<svg xmlns="http://www.w3.org/2000/svg" xmlns:xlink="http://www.w3.org/1999/xlink" width="1200" height="480">\n<path  d="M 0 0
L 1200 0
L 1200 480
L 0 480
L 0 0" style="stroke-width:0;stroke:rgba(255,255,255,1.0);fill:rgba(255,255,255,1.0)"/><path  d="M 12 11
L 1123 11
L 1123 431
L 12 431
L 12 11" style="stroke-width:0;stroke:rgba(255,255,255,1.0);fill:rgba(255,255,255,1.0)"/><path  d="M 12 431
L 1123 431" style="stroke-width:1;stroke:rgba(85,85,85,0.7);fill:none"/><path  d="M 12 431
L 12 436" style="stroke-width:1;stroke:rgba(85,85,85,0.7);fill:none"/><text x="5" y="453" style="stroke-width:0;stroke:none;fill:rgba(51,51,51,1.0);font-size:12.8px;font-family:'Roboto Medium',sans-serif">0s</text><path  d="M 50 431
L 50 436" style="stroke-width:1;stroke:rgba(85,85,85,0.7);fill:none"/><text x="43" y="453" style="stroke-width:0;stroke:none;fill:rgba(51,51,51,1.0);font-size:12.8px;font-family:'Roboto Medium',sans-serif">2s</text><path  d="M 88 431
L 88 436" style="stroke-width:1;stroke:rgba(85,85,85,0.7);fill:none"/><text x="81" y="453" style="stroke-width:0;stroke:none;fill:rgba(51,51,51,1.0);font-size:12.8px;font-family:'Roboto Medium',sans-serif">4s</text><path  d="M 124 431
L 124 436" style="stroke-width:1;stroke:rgba(85,85,85,0.7);fill:none"/><text x="117" y="453" style="stroke-width:0;stroke:none;fill:rgba(51,51,51,1.0);font-size:12.8px;font-family:'Roboto Medium',sans-serif">6s</text><path  d="M 161 431
L 161 436" style="stroke-width:1;stroke:rgba(85,85,85,0.7);fill:none"/><text x="154" y="453" style="stroke-width:0;stroke:none;fill:rgba(51,51,51,1.0);font-size:12.8px;font-family:'Roboto Medium',sans-serif">7s</text><path  d="M 199 431
L 199 436" style="stroke-width:1;stroke:rgba(85,85,85,0.7);fill:none"/><text x="192" y="453" style="stroke-width:0;stroke:none;fill:rgba(51,51,51,1.0);font-size:12.8px;font-family:'Roboto Medium',sans-serif">9s</text><path  d="M 235 431
L 235 436" style="stroke-width:1;stroke:rgba(85,85,85,0.7);fill:none"/><text x="224" y="453" style="stroke-width:0;stroke:none;fill:rgba(51,51,51,1.0);font-size:12.8px;font-family:'Roboto Medium',sans-serif">11s</text><path  d="M 272 431
L 272 436" style="stroke-width:1;stroke:rgba(85,85,85,0.7);fill:none"/><text x="261" y="453" style="stroke-width:0;stroke:none;fill:rgba(51,51,51,1.0);font-size:12.8px;font-family:'Roboto Medium',sans-serif">13s</text><path  d="M 310 431
L 310 436" style="stroke-width:1;stroke:rgba(85,85,85,0.7);fill:none"/><text x="299" y="453" style="stroke-width:0;stroke:none;fill:rgba(51,51,51,1.0);font-size:12.8px;font-family:'Roboto Medium',sans-serif">15s</text><path  d="M 346 431
L 346 436" style="stroke-width:1;stroke:rgba(85,85,85,0.7);fill:none"/><text x="335" y="453" style="stroke-width:0;stroke:none;fill:rgba(51,51,51,1.0);font-size:12.8px;font-family:'Roboto Medium',sans-serif">17s</text><path  d="M 384 431
L 384 436" style="stroke-width:1;stroke:rgba(85,85,85,0.7);fill:none"/><text x="373" y="453" style="stroke-width:0;stroke:none;fill:rgba(51,51,51,1.0);font-size:12.8px;font-family:'Roboto Medium',sans-serif">19s</text><path  d="M 421 431
L 421 436" style="stroke-width:1;stroke:rgba(85,85,85,0.7);fill:none"/><text x="410" y="453" style="stroke-width:0;stroke:none;fill:rgba(51,51,51,1.0);font-size:12.8px;font-family:'Roboto Medium',sans-serif">21s</text><path  d="M 457 431
L 457 436" style="stroke-width:1;stroke:rgba(85,85,85,0.7);fill:none"/><text x="446" y="453" style="stroke-width:0;stroke:none;fill:rgba(51,51,51,1.0);font-size:12.8px;font-family:'Roboto Medium',sans-serif">22s</text><path  d="M 495 431
L 495 436" style="stroke-width:1;stroke:rgba(85,85,85,0.7);fill:none"/><text x="484" y="453" style="stroke-width:0;stroke:none;fill:rgba(51,51,51,1.0);font-size:12.8px;font-family:'Roboto Medium',sans-serif">24s</text><path  d="M 532 431
L 532 436" style="stroke-width:1;stroke:rgba(85,85,85,0.7);fill:none"/><text x="521" y="453" style="stroke-width:0;stroke:none;fill:rgba(51,51,51,1.0);font-size:12.8px;font-family:'Roboto Medium',sans-serif">26s</text><path  d="M 568 431
L 568 436" style="stroke-width:1;stroke:rgba(85,85,85,0.7);fill:none"/><text x="557" y="453" style="stroke-width:0;stroke:none;fill:rgba(51,51,51,1.0);font-size:12.8px;font-family:'Roboto Medium',sans-serif">28s</text><path  d="M 606 431
L 606 436" style="stroke-width:1;stroke:rgba(85,85,85,0.7);fill:none"/><text x="595" y="453" style="stroke-width:0;stroke:none;fill:rgba(51,51,51,1.0);font-size:12.8px;font-family:'Roboto Medium',sans-serif">30s</text><path  d="M 643 431
L 643 436" style="stroke-width:1;stroke:rgba(85,85,85,0.7);fill:none"/><text x="632" y="453" style="stroke-width:0;stroke:none;fill:rgba(51,51,51,1.0);font-size:12.8px;font-family:'Roboto Medium',sans-serif">32s</text><path  d="M 679 431
L 679 436" style="stroke-width:1;stroke:rgba(85,85,85,0.7);fill:none"/><text x="668" y="453" style="stroke-width:0;stroke:none;fill:rgba(51,51,51,1.0);font-size:12.8px;font-family:'Roboto Medium',sans-serif">34s</text><path  d="M 717 431
L 717 436" style="stroke-width:1;stroke:rgba(85,85,85,0.7);fill:none"/><text x="706" y="453" style="stroke-width:0;stroke:none;fill:rgba(51,51,51,1.0);font-size:12.8px;font-family:'Roboto Medium',sans-serif">35s</text><path  d="M 755 431
L 755 436" style="stroke-width:1;stroke:rgba(85,85,85,0.7);fill:none"/><text x="744" y="453" style="stroke-width:0;stroke:none;fill:rgba(51,51,51,1.0);font-size:12.8px;font-family:'Roboto Medium',sans-serif">37s</text><path  d="M 790 431
L 790 436" style="stroke-width:1;stroke:rgba(85,85,85,0.7);fill:none"/><text x="779" y="453" style="stroke-width:0;stroke:none;fill:rgba(51,51,51,1.0);font-size:12.8px;font-family:'Roboto Medium',sans-serif">39s</text><path  d="M 828 431
L 828 436" style="stroke-width:1;stroke:rgba(85,85,85,0.7);fill:none"/><text x="817" y="453" style="stroke-width:0;stroke:none;fill:rgba(51,51,51,1.0);font-size:12.8px;font-family:'Roboto Medium',sans-serif">41s</text><path  d="M 866 431
L 866 436" style="stroke-width:1;stroke:rgba(85,85,85,0.7);fill:none"/><text x="855" y="453" style="stroke-width:0;stroke:none;fill:rgba(51,51,51,1.0);font-size:12.8px;font-family:'Roboto Medium',sans-serif">43s</text><path  d="M 901 431
L 901 436" style="stroke-width:1;stroke:rgba(85,85,85,0.7);fill:none"/><text x="890" y="453" style="stroke-width:0;stroke:none;fill:rgba(51,51,51,1.0);font-size:12.8px;font-family:'Roboto Medium',sans-serif">45s</text><path  d="M 939 431
L 939 436" style="stroke-width:1;stroke:rgba(85,85,85,0.7);fill:none"/><text x="928" y="453" style="stroke-width:0;stroke:none;fill:rgba(51,51,51,1.0);font-size:12.8px;font-family:'Roboto Medium',sans-serif">47s</text><path  d="M 977 431
L 977 436" style="stroke-width:1;stroke:rgba(85,85,85,0.7);fill:none"/><text x="966" y="453" style="stroke-width:0;stroke:none;fill:rgba(51,51,51,1.0);font-size:12.8px;font-family:'Roboto Medium',sans-serif">49s</text><path  d="M 1013 431
L 1013 436" style="stroke-width:1;stroke:rgba(85,85,85,0.7);fill:none"/><text x="1002" y="453" style="stroke-width:0;stroke:none;fill:rgba(51,51,51,1.0);font-size:12.8px;font-family:'Roboto Medium',sans-serif">50s</text><path  d="M 1050 431
L 1050 436" style="stroke-width:1;stroke:rgba(85,85,85,0.7);fill:none"/><text x="1039" y="453" style="stroke-width:0;stroke:none;fill:rgba(51,51,51,1.0);font-size:12.8px;font-family:'Roboto Medium',sans-serif">52s</text><path  d="M 1088 431
L 1088 436" style="stroke-width:1;stroke:rgba(85,85,85,0.7);fill:none"/><text x="1077" y="453" style="stroke-width:0;stroke:none;fill:rgba(51,51,51,1.0);font-size:12.8px;font-family:'Roboto Medium',sans-serif">54s</text><path  d="M 1123 431
L 1123 436" style="stroke-width:1;stroke:rgba(85,85,85,0.7);fill:none"/><text x="1112" y="453" style="stroke-width:0;stroke:none;fill:rgba(51,51,51,1.0);font-size:12.8px;font-family:'Roboto Medium',sans-serif">56s</text><text x="553" y="475" style="stroke-width:0;stroke:none;fill:rgba(51,51,51,1.0);font-size:12.8px;font-family:'Roboto Medium',sans-serif">Time</text><path  d="M 50 431
L 50 11" style="stroke-width:1;stroke:rgba(0,0,0,0.1);fill:none"/><path  d="M 88 431
L 88 11" style="stroke-width:1;stroke:rgba(0,0,0,0.1);fill:none"/><path  d="M 124 431
L 124 11" style="stroke-width:1;stroke:rgba(0,0,0,0.1);fill:none"/><path  d="M 161 431
L 161 11" style="stroke-width:1;stroke:rgba(0,0,0,0.1);fill:none"/><path  d="M 199 431
L 199 11" style="stroke-width:1;stroke:rgba(0,0,0,0.1);fill:none"/><path  d="M 235 431
L 235 11" style="stroke-width:1;stroke:rgba(0,0,0,0.1);fill:none"/><path  d="M 272 431
L 272 11" style="stroke-width:1;stroke:rgba(0,0,0,0.1);fill:none"/><path  d="M 310 431
L 310 11" style="stroke-width:1;stroke:rgba(0,0,0,0.1);fill:none"/><path  d="M 346 431
L 346 11" style="stroke-width:1;stroke:rgba(0,0,0,0.1);fill:none"/><path  d="M 384 431
L 384 11" style="stroke-width:1;stroke:rgba(0,0,0,0.1);fill:none"/><path  d="M 421 431
L 421 11" style="stroke-width:1;stroke:rgba(0,0,0,0.1);fill:none"/><path  d="M 457 431
L 457 11" style="stroke-width:1;stroke:rgba(0,0,0,0.1);fill:none"/><path  d="M 495 431
L 495 11" style="stroke-width:1;stroke:rgba(0,0,0,0.1);fill:none"/><path  d="M 532 431
L 532 11" style="stroke-width:1;stroke:rgba(0,0,0,0.1);fill:none"/><path  d="M 568 431
L 568 11" style="stroke-width:1;stroke:rgba(0,0,0,0.1);fill:none"/><path  d="M 606 431
L 606 11" style="stroke-width:1;stroke:rgba(0,0,0,0.1);fill:none"/><path  d="M 643 431
L 643 11" style="stroke-width:1;stroke:rgba(0,0,0,0.1);fill:none"/><path  d="M 679 431
L 679 11" style="stroke-width:1;stroke:rgba(0,0,0,0.1);fill:none"/><path  d="M 717 431
L 717 11" style="stroke-width:1;stroke:rgba(0,0,0,0.1);fill:none"/><path  d="M 755 431
L 755 11" style="stroke-width:1;stroke:rgba(0,0,0,0.1);fill:none"/><path  d="M 790 431
L 790 11" style="stroke-width:1;stroke:rgba(0,0,0,0.1);fill:none"/><path  d="M 828 431
L 828 11" style="stroke-width:1;stroke:rgba(0,0,0,0.1);fill:none"/><path  d="M 866 431
L 866 11" style="stroke-width:1;stroke:rgba(0,0,0,0.1);fill:none"/><path  d="M 901 431
L 901 11" style="stroke-width:1;stroke:rgba(0,0,0,0.1);fill:none"/><path  d="M 939 431
L 939 11" style="stroke-width:1;stroke:rgba(0,0,0,0.1);fill:none"/><path  d="M 977 431
L 977 11" style="stroke-width:1;stroke:rgba(0,0,0,0.1);fill:none"/><path  d="M 1013 431
L 1013 11" style="stroke-width:1;stroke:rgba(0,0,0,0.1);fill:none"/><path  d="M 1050 431
L 1050 11" style="stroke-width:1;stroke:rgba(0,0,0,0.1);fill:none"/><path  d="M 1088 431
L 1088 11" style="stroke-width:1;stroke:rgba(0,0,0,0.1);fill:none"/><path  d="M 1124 431
L 1124 11" style="stroke-width:1;stroke:rgba(85,85,85,0.7);fill:none"/><path  d="M 1124 431
L 1129 431" style="stroke-width:1;stroke:rgba(85,85,85,0.7);fill:none"/><text x="1134" y="437" style="stroke-width:0;stroke:none;fill:rgba(51,51,51,1.0);font-size:12.8px;font-family:'Roboto Medium',sans-serif">0.00</text><path  d="M 1124 391
L 1129 391" style="stroke-width:1;stroke:rgba(85,85,85,0.7);fill:none"/><text x="1134" y="397" style="stroke-width:0;stroke:none;fill:rgba(51,51,51,1.0);font-size:12.8px;font-family:'Roboto Medium',sans-serif">20.00</text><path  d="M 1124 353
L 1129 353" style="stroke-width:1;stroke:rgba(85,85,85,0.7);fill:none"/><text x="1134" y="359" style="stroke-width:0;stroke:none;fill:rgba(51,51,51,1.0);font-size:12.8px;font-family:'Roboto Medium',sans-serif">39.00</text><path  d="M 1124 314
L 1129 314" style="stroke-width:1;stroke:rgba(85,85,85,0.7);fill:none"/><text x="1134" y="320" style="stroke-width:0;stroke:none;fill:rgba(51,51,51,1.0);font-size:12.8px;font-family:'Roboto Medium',sans-serif">58.00</text><path  d="M 1124 277
L 1129 277" style="stroke-width:1;stroke:rgba(85,85,85,0.7);fill:none"/><text x="1134" y="283" style="stroke-width:0;stroke:none;fill:rgba(51,51,51,1.0);font-size:12.8px;font-family:'Roboto Medium',sans-serif">77.00</text><path  d="M 1124 239
L 1129 239" style="stroke-width:1;stroke:rgba(85,85,85,0.7);fill:none"/><text x="1134" y="245" style="stroke-width:0;stroke:none;fill:rgba(51,51,51,1.0);font-size:12.8px;font-family:'Roboto Medium',sans-serif">96.00</text><path  d="M 1124 200
L 1129 200" style="stroke-width:1;stroke:rgba(85,85,85,0.7);fill:none"/><text x="1134" y="206" style="stroke-width:0;stroke:none;fill:rgba(51,51,51,1.0);font-size:12.8px;font-family:'Roboto Medium',sans-serif">115.00</text><path  d="M 1124 163
L 1129 163" style="stroke-width:1;stroke:rgba(85,85,85,0.7);fill:none"/><text x="1134" y="169" style="stroke-width:0;stroke:none;fill:rgba(51,51,51,1.0);font-size:12.8px;font-family:'Roboto Medium',sans-serif">134.00</text><path  d="M 1124 125
L 1129 125" style="stroke-width:1;stroke:rgba(85,85,85,0.7);fill:none"/><text x="1134" y="131" style="stroke-width:0;stroke:none;fill:rgba(51,51,51,1.0);font-size:12.8px;font-family:'Roboto Medium',sans-serif">153.00</text><path  d="M 1124 87
L 1129 87" style="stroke-width:1;stroke:rgba(85,85,85,0.7);fill:none"/><text x="1134" y="93" style="stroke-width:0;stroke:none;fill:rgba(51,51,51,1.0);font-size:12.8px;font-family:'Roboto Medium',sans-serif">172.00</text><path  d="M 1124 49
L 1129 49" style="stroke-width:1;stroke:rgba(85,85,85,0.7);fill:none"/><text x="1134" y="55" style="stroke-width:0;stroke:none;fill:rgba(51,51,51,1.0);font-size:12.8px;font-family:'Roboto Medium',sans-serif">191.00</text><path  d="M 1124 11
L 1129 11" style="stroke-width:1;stroke:rgba(85,85,85,0.7);fill:none"/><text x="1134" y="17" style="stroke-width:0;stroke:none;fill:rgba(51,51,51,1.0);font-size:12.8px;font-family:'Roboto Medium',sans-serif">210.00</text><text x="1184" y="209" style="stroke-width:0;stroke:none;fill:rgba(51,51,51,1.0);font-size:12.8px;font-family:'Roboto Medium',sans-serif" transform="rotate(90.00,1184,209)">RPS</text><path  d="M 12 391
L 1123 391" style="stroke-width:1;stroke:rgba(0,0,0,0.1);fill:none"/><path  d="M 12 353
L 1123 353" style="stroke-width:1;stroke:rgba(0,0,0,0.1);fill:none"/><path  d="M 12 314
L 1123 314" style="stroke-width:1;stroke:rgba(0,0,0,0.1);fill:none"/><path  d="M 12 277
L 1123 277" style="stroke-width:1;stroke:rgba(0,0,0,0.1);fill:none"/><path  d="M 12 239
L 1123 239" style="stroke-width:1;stroke:rgba(0,0,0,0.1);fill:none"/><path  d="M 12 200
L 1123 200" style="stroke-width:1;stroke:rgba(0,0,0,0.1);fill:none"/><path  d="M 12 163
L 1123 163" style="stroke-width:1;stroke:rgba(0,0,0,0.1);fill:none"/><path  d="M 12 125
L 1123 125" style="stroke-width:1;stroke:rgba(0,0,0,0.1);fill:none"/><path  d="M 12 87
L 1123 87" style="stroke-width:1;stroke:rgba(0,0,0,0.1);fill:none"/><path  d="M 12 49
L 1123 49" style="stroke-width:1;stroke:rgba(0,0,0,0.1);fill:none"/><path  d="M 12 431
L 32 431
L 52 431
L 72 431
L 92 29
L 112 31
L 132 31
L 151 31
L 171 31
L 191 31
L 211 31
L 231 31
L 251 31
L 270 31
L 290 31
L 310 31
L 330 31
L 350 31
L 370 31
L 389 31
L 409 31
L 429 31
L 449 31
L 469 31
L 489 31
L 509 31
L 528 31
L 548 31
L 568 31
L 588 31
L 608 31
L 628 31
L 647 31
L 667 31
L 687 31
L 707 31
L 727 31
L 747 31
L 766 31
L 786 31
L 806 31
L 826 31
L 846 31
L 866 31
L 886 31
L 905 31
L 925 31
L 945 31
L 965 31
L 985 31
L 1005 31
L 1024 31
L 1044 31
L 1064 33
L 1084 431
L 1104 431
L 1123 431
L 1123 431
L 12 431
L 12 431" style="stroke-width:0;stroke:none;fill:rgba(0,116,217,0.0)"/><path  d="M 12 431
L 32 431
L 52 431
L 72 431
L 92 29
L 112 31
L 132 31
L 151 31
L 171 31
L 191 31
L 211 31
L 231 31
L 251 31
L 270 31
L 290 31
L 310 31
L 330 31
L 350 31
L 370 31
L 389 31
L 409 31
L 429 31
L 449 31
L 469 31
L 489 31
L 509 31
L 528 31
L 548 31
L 568 31
L 588 31
L 608 31
L 628 31
L 647 31
L 667 31
L 687 31
L 707 31
L 727 31
L 747 31
L 766 31
L 786 31
L 806 31
L 826 31
L 846 31
L 866 31
L 886 31
L 905 31
L 925 31
L 945 31
L 965 31
L 985 31
L 1005 31
L 1024 31
L 1044 31
L 1064 33
L 1084 431
L 1104 431
L 1123 431" style="stroke-width:1;stroke:rgba(0,116,217,1.0);fill:none"/><path  d="M 12 11
L 163 11
L 163 31
L 12 31
L 12 11" style="stroke-width:1;stroke:rgba(51,51,51,1.0);fill:rgba(255,255,255,1.0)"/><text x="17" y="26" style="stroke-width:0;stroke:none;fill:rgba(51,51,51,1.0);font-size:10.2px;font-family:'Roboto Medium',sans-serif">const_c_const_rps_aggr</text><path  d="M 133 21
L 153 21" style="stroke-width:1;stroke:rgba(0,116,217,1.0);fill:none"/></svg>