<?xml version="1.0" encoding="iso-8859-1"?>
<!-- Generator: Adobe Illustrator 19.0.0, SVG Export Plug-In . SVG Version: 6.00 Build 0)  -->
<svg version="1.1" id="Layer_1" xmlns="http://www.w3.org/2000/svg" xmlns:xlink="http://www.w3.org/1999/xlink" x="0px" y="0px"
	 viewBox="0 0 511.999 511.999" style="enable-background:new 0 0 511.999 511.999;" xml:space="preserve">
<path style="fill:#507C5C;" d="M92.918,182.171h-78.73C6.353,182.171,0,175.819,0,167.983s6.353-14.188,14.188-14.188h78.73
	c7.835,0,14.188,6.352,14.188,14.188S100.754,182.171,92.918,182.171z"/>
<path style="fill:#CFF09E;" d="M265.338,256.001l-94.276-91.732V62.699c0-12.342,14.9-18.548,23.66-9.854l204.721,203.154
	L194.722,459.153c-8.761,8.693-23.66,2.489-23.66-9.854V347.731L265.338,256.001z"/>
<g>
	<path style="fill:#507C5C;" d="M507.806,245.929L303.085,42.774c-5.562-5.521-14.546-5.485-20.066,0.077
		c-5.519,5.562-5.484,14.546,0.078,20.065l194.572,193.083L283.618,448.561v-57.634l125.82-124.857
		c2.684-2.663,4.194-6.29,4.194-10.071c0-3.781-1.51-7.408-4.194-10.071L204.718,42.773c-5.312-5.269-12.298-8.172-19.673-8.172
		c-15.532,0-28.169,12.605-28.169,28.098v101.569c0,3.831,1.549,7.498,4.293,10.169l83.825,81.563l-75.875,73.828H14.188
		C6.353,329.827,0,336.179,0,344.015c0,7.836,6.353,14.188,14.188,14.188h142.686V449.3c0,15.493,12.637,28.098,28.169,28.098
		c7.375,0,14.361-2.901,19.673-8.172l50.524-50.138v30.214c0,11.37,6.782,21.542,17.278,25.913c3.507,1.46,7.179,2.171,10.818,2.171
		c7.253,0,14.371-2.825,19.747-8.158l204.721-203.156c2.684-2.663,4.194-6.29,4.194-10.071
		C511.999,252.22,510.49,248.593,507.806,245.929z M185.25,448.562v-94.838l89.983-87.555c2.745-2.67,4.293-6.338,4.293-10.169
		c0-3.831-1.549-7.498-4.293-10.169l-89.983-87.554l0.004-94.841l194.047,192.564L185.25,448.562z"/>
	<path style="fill:#507C5C;" d="M180.098,270.189H44.948c-7.835,0-14.188-6.352-14.188-14.188c0-7.836,6.353-14.188,14.188-14.188
		h135.15c7.835,0,14.188,6.352,14.188,14.188C194.287,263.837,187.933,270.189,180.098,270.189z"/>
</g>
<g>
</g>
<g>
</g>
<g>
</g>
<g>
</g>
<g>
</g>
<g>
</g>
<g>
</g>
<g>
</g>
<g>
</g>
<g>
</g>
<g>
</g>
<g>
</g>
<g>
</g>
<g>
</g>
<g>
</g>
</svg>
