<svg xmlns="http://www.w3.org/2000/svg" viewBox="0 0 511.999 511.999"><path d="M92.918 182.171h-78.73C6.353 182.171 0 175.819 0 167.983s6.353-14.188 14.188-14.188h78.73c7.835 0 14.188 6.352 14.188 14.188s-6.352 14.188-14.188 14.188z" fill="#507c5c"/><path d="M265.338 256.001l-94.276-91.732V62.699c0-12.342 14.9-18.548 23.66-9.854l204.721 203.154-204.721 203.154c-8.761 8.693-23.66 2.489-23.66-9.854V347.731l94.276-91.73z" fill="#cff09e"/><g fill="#507c5c"><path d="M507.806 245.929L303.085 42.774c-5.562-5.521-14.546-5.485-20.066.077-5.519 5.562-5.484 14.546.078 20.065l194.572 193.083-194.051 192.562v-57.634l125.82-124.857a14.19 14.19 0 000-20.142L204.718 42.773c-5.312-5.269-12.298-8.172-19.673-8.172-15.532 0-28.169 12.605-28.169 28.098v101.569c0 3.831 1.549 7.498 4.293 10.169L244.994 256l-75.875 73.828H14.188C6.353 329.827 0 336.179 0 344.015c0 7.836 6.353 14.188 14.188 14.188h142.686V449.3c0 15.493 12.637 28.098 28.169 28.098 7.375 0 14.361-2.901 19.673-8.172l50.524-50.138v30.214a27.996 27.996 0 0017.278 25.913 28.114 28.114 0 0010.818 2.171 28.009 28.009 0 0019.747-8.158l204.721-203.156a14.19 14.19 0 00.002-20.143zM185.25 448.562v-94.838l89.983-87.555a14.191 14.191 0 000-20.338l-89.983-87.554.004-94.841L379.301 256 185.25 448.562z"/><path d="M180.098 270.189H44.948c-7.835 0-14.188-6.352-14.188-14.188s6.353-14.188 14.188-14.188h135.15c7.835 0 14.188 6.352 14.188 14.188.001 7.836-6.353 14.188-14.188 14.188z"/></g></svg>